<?xml version="1.0" encoding="utf-8"?>
<!-- Generator: Adobe Illustrator 25.4.1, SVG Export Plug-In . SVG Version: 6.00 Build 0)  -->
<svg version="1.1" id="Ñëîé_1" xmlns="http://www.w3.org/2000/svg" xmlns:xlink="http://www.w3.org/1999/xlink" x="0px" y="0px"
	 viewBox="0 0 841.89 595.28" style="enable-background:new 0 0 841.89 595.28;" xml:space="preserve">
<style type="text/css">
	.st0{opacity:0.66;fill:url(#SVGID_1_);}
	.st1{opacity:0.66;}
	.st2{fill:#E8F7FE;}
	.st3{fill:#999797;}
	.st4{fill:#3D4346;}
	.st5{fill:#707A7E;}
	.st6{fill:#4F5759;}
	.st7{fill:#4F4F4F;}
	.st8{fill:#47C3DF;}
	.st9{fill:#84D0E1;}
	.st10{fill:#F6F7F8;}
	.st11{fill:#CFD0D1;}
	.st12{fill:#2D3133;}
	.st13{fill:#1B1E1F;}
	.st14{fill:#272727;}
	.st15{fill:#363C3E;}
	.st16{fill:#3B3B3B;}
	.st17{fill:#6A6A6A;}
	.st18{fill:#63804C;}
	.st19{fill:#769551;}
	.st20{fill:#8B5A61;}
	.st21{fill:#8A5E41;}
	.st22{fill:#6E864D;}
	.st23{fill:#BC9289;}
	.st24{fill:#72A255;}
	.st25{fill:#88623D;}
	.st26{fill:#2E3133;}
	.st27{fill:#676D71;}
	.st28{fill:#413C35;}
	.st29{fill:#999897;}
	.st30{fill:#524C45;}
	.st31{fill:#6D645D;}
	.st32{fill:#BFBFBF;}
	.st33{fill:#6E655D;}
	.st34{fill:#837D73;}
	.st35{fill:#010303;}
	.st36{fill:#F45951;}
	.st37{fill:#9E3A2D;}
	.st38{fill:#CDCDCD;}
	.st39{fill:#9F4646;}
	.st40{fill:#F4515E;}
	.st41{fill:#E3E2E3;}
	.st42{fill:#BBBBBC;}
	.st43{fill:#6A6969;}
	.st44{fill:#A6A5A5;}
	.st45{fill:#A96C42;}
	.st46{fill:#6C422E;}
	.st47{fill:#CB8667;}
	.st48{fill:#905E3C;}
	.st49{fill:#583728;}
</style>
<linearGradient id="SVGID_1_" gradientUnits="userSpaceOnUse" x1="0" y1="270.905" x2="841.89" y2="270.905">
	<stop  offset="0.0544" style="stop-color:#00B8E2"/>
	<stop  offset="0.9041" style="stop-color:#92CDDD"/>
</linearGradient>
<rect class="st0" width="841.89" height="541.81"/>
<g class="st1">
	<g>
		<rect y="1.25" class="st2" width="20.86" height="24.23"/>
		<rect x="23.69" y="1.25" class="st2" width="50.6" height="24.23"/>
		<rect x="76.83" y="1.25" class="st2" width="50.6" height="24.23"/>
		<rect x="129.96" y="1.25" class="st2" width="50.6" height="24.23"/>
		<rect x="183.09" y="1.25" class="st2" width="50.6" height="24.23"/>
		<rect x="236.23" y="1.25" class="st2" width="50.6" height="24.23"/>
		<rect x="289.36" y="1.25" class="st2" width="50.6" height="24.23"/>
		<rect x="342.49" y="1.25" class="st2" width="50.6" height="24.23"/>
		<rect x="395.63" y="1.25" class="st2" width="50.6" height="24.23"/>
		<rect x="448.76" y="1.25" class="st2" width="50.6" height="24.23"/>
		<rect x="501.89" y="1.25" class="st2" width="50.6" height="24.23"/>
		<rect x="555.03" y="1.25" class="st2" width="50.6" height="24.23"/>
		<rect x="608.16" y="1.25" class="st2" width="50.6" height="24.23"/>
		<rect x="661.29" y="1.25" class="st2" width="50.6" height="24.23"/>
		<rect x="714.43" y="1.25" class="st2" width="50.6" height="24.23"/>
		<rect x="767.56" y="1.25" class="st2" width="50.6" height="24.23"/>
		<rect x="820.69" y="1.25" class="st2" width="21.2" height="24.23"/>
	</g>
	<g>
		<rect y="27.52" class="st2" width="31.13" height="24.23"/>
		<rect x="33.97" y="27.52" class="st2" width="50.6" height="24.23"/>
		<rect x="87.1" y="27.52" class="st2" width="50.6" height="24.23"/>
		<rect x="140.24" y="27.52" class="st2" width="50.6" height="24.23"/>
		<rect x="193.37" y="27.52" class="st2" width="50.6" height="24.23"/>
		<rect x="246.5" y="27.52" class="st2" width="50.6" height="24.23"/>
		<rect x="299.64" y="27.52" class="st2" width="50.6" height="24.23"/>
		<rect x="352.77" y="27.52" class="st2" width="50.6" height="24.23"/>
		<rect x="405.9" y="27.52" class="st2" width="50.6" height="24.23"/>
		<rect x="459.04" y="27.52" class="st2" width="50.6" height="24.23"/>
		<rect x="512.17" y="27.52" class="st2" width="50.6" height="24.23"/>
		<rect x="565.3" y="27.52" class="st2" width="50.6" height="24.23"/>
		<rect x="618.44" y="27.52" class="st2" width="50.6" height="24.23"/>
		<rect x="671.57" y="27.52" class="st2" width="50.6" height="24.23"/>
		<rect x="724.7" y="27.52" class="st2" width="50.6" height="24.23"/>
		<rect x="777.84" y="27.52" class="st2" width="50.6" height="24.23"/>
		<rect x="830.97" y="27.52" class="st2" width="10.92" height="24.23"/>
	</g>
	<g>
		<rect y="54.08" class="st2" width="20.86" height="24.23"/>
		<rect x="23.69" y="54.08" class="st2" width="50.6" height="24.23"/>
		<rect x="76.83" y="54.08" class="st2" width="50.6" height="24.23"/>
		<rect x="129.96" y="54.08" class="st2" width="50.6" height="24.23"/>
		<rect x="183.09" y="54.08" class="st2" width="50.6" height="24.23"/>
		<rect x="236.23" y="54.08" class="st2" width="50.6" height="24.23"/>
		<rect x="289.36" y="54.08" class="st2" width="50.6" height="24.23"/>
		<rect x="342.49" y="54.08" class="st2" width="50.6" height="24.23"/>
		<rect x="395.63" y="54.08" class="st2" width="50.6" height="24.23"/>
		<rect x="448.76" y="54.08" class="st2" width="50.6" height="24.23"/>
		<rect x="501.89" y="54.08" class="st2" width="50.6" height="24.23"/>
		<rect x="555.03" y="54.08" class="st2" width="50.6" height="24.23"/>
		<rect x="608.16" y="54.08" class="st2" width="50.6" height="24.23"/>
		<rect x="661.29" y="54.08" class="st2" width="50.6" height="24.23"/>
		<rect x="714.43" y="54.08" class="st2" width="50.6" height="24.23"/>
		<rect x="767.56" y="54.08" class="st2" width="50.6" height="24.23"/>
		<rect x="820.69" y="54.08" class="st2" width="21.2" height="24.23"/>
	</g>
	<g>
		<rect y="80.35" class="st2" width="31.13" height="24.23"/>
		<rect x="33.97" y="80.35" class="st2" width="50.6" height="24.23"/>
		<rect x="87.1" y="80.35" class="st2" width="50.6" height="24.23"/>
		<rect x="140.24" y="80.35" class="st2" width="50.6" height="24.23"/>
		<rect x="193.37" y="80.35" class="st2" width="50.6" height="24.23"/>
		<rect x="246.5" y="80.35" class="st2" width="50.6" height="24.23"/>
		<rect x="299.64" y="80.35" class="st2" width="50.6" height="24.23"/>
		<rect x="352.77" y="80.35" class="st2" width="50.6" height="24.23"/>
		<rect x="405.9" y="80.35" class="st2" width="50.6" height="24.23"/>
		<rect x="459.04" y="80.35" class="st2" width="50.6" height="24.23"/>
		<rect x="512.17" y="80.35" class="st2" width="50.6" height="24.23"/>
		<rect x="565.3" y="80.35" class="st2" width="50.6" height="24.23"/>
		<rect x="618.44" y="80.35" class="st2" width="50.6" height="24.23"/>
		<rect x="671.57" y="80.35" class="st2" width="50.6" height="24.23"/>
		<rect x="724.7" y="80.35" class="st2" width="50.6" height="24.23"/>
		<rect x="777.84" y="80.35" class="st2" width="50.6" height="24.23"/>
		<rect x="830.97" y="80.35" class="st2" width="10.92" height="24.23"/>
	</g>
	<g>
		<rect y="106.56" class="st2" width="20.86" height="24.23"/>
		<rect x="23.69" y="106.56" class="st2" width="50.6" height="24.23"/>
		<rect x="76.83" y="106.56" class="st2" width="50.6" height="24.23"/>
		<rect x="129.96" y="106.56" class="st2" width="50.6" height="24.23"/>
		<rect x="183.09" y="106.56" class="st2" width="50.6" height="24.23"/>
		<rect x="236.23" y="106.56" class="st2" width="50.6" height="24.23"/>
		<rect x="289.36" y="106.56" class="st2" width="50.6" height="24.23"/>
		<rect x="342.49" y="106.56" class="st2" width="50.6" height="24.23"/>
		<rect x="395.63" y="106.56" class="st2" width="50.6" height="24.23"/>
		<rect x="448.76" y="106.56" class="st2" width="50.6" height="24.23"/>
		<rect x="501.89" y="106.56" class="st2" width="50.6" height="24.23"/>
		<rect x="555.03" y="106.56" class="st2" width="50.6" height="24.23"/>
		<rect x="608.16" y="106.56" class="st2" width="50.6" height="24.23"/>
		<rect x="661.29" y="106.56" class="st2" width="50.6" height="24.23"/>
		<rect x="714.43" y="106.56" class="st2" width="50.6" height="24.23"/>
		<rect x="767.56" y="106.56" class="st2" width="50.6" height="24.23"/>
		<rect x="820.69" y="106.56" class="st2" width="21.2" height="24.23"/>
	</g>
	<g>
		<rect y="132.83" class="st2" width="31.12" height="24.23"/>
		<rect x="33.96" y="132.83" class="st2" width="50.58" height="24.23"/>
		<rect x="87.07" y="132.83" class="st2" width="50.58" height="24.23"/>
		<rect x="140.19" y="132.83" class="st2" width="50.58" height="24.23"/>
		<rect x="193.31" y="132.83" class="st2" width="50.58" height="24.23"/>
		<rect x="246.42" y="132.83" class="st2" width="50.58" height="24.23"/>
		<rect x="299.54" y="132.83" class="st2" width="50.58" height="24.23"/>
		<rect x="352.65" y="132.83" class="st2" width="50.58" height="24.23"/>
		<rect x="405.77" y="132.83" class="st2" width="50.58" height="24.23"/>
		<rect x="458.89" y="132.83" class="st2" width="50.58" height="24.23"/>
		<rect x="512" y="132.83" class="st2" width="50.58" height="24.23"/>
		<rect x="565.12" y="132.83" class="st2" width="50.58" height="24.23"/>
		<rect x="618.23" y="132.83" class="st2" width="50.58" height="24.23"/>
		<rect x="671.35" y="132.83" class="st2" width="50.58" height="24.23"/>
		<rect x="724.46" y="132.83" class="st2" width="50.58" height="24.23"/>
		<rect x="777.58" y="132.83" class="st2" width="50.58" height="24.23"/>
		<rect x="830.7" y="132.83" class="st2" width="11.19" height="24.23"/>
	</g>
	<g>
		<rect y="159.04" class="st2" width="20.86" height="24.23"/>
		<rect x="23.69" y="159.04" class="st2" width="50.6" height="24.23"/>
		<rect x="76.83" y="159.04" class="st2" width="50.6" height="24.23"/>
		<rect x="129.96" y="159.04" class="st2" width="50.6" height="24.23"/>
		<rect x="183.09" y="159.04" class="st2" width="50.6" height="24.23"/>
		<rect x="236.23" y="159.04" class="st2" width="50.6" height="24.23"/>
		<rect x="289.36" y="159.04" class="st2" width="50.6" height="24.23"/>
		<rect x="342.49" y="159.04" class="st2" width="50.6" height="24.23"/>
		<rect x="395.63" y="159.04" class="st2" width="50.6" height="24.23"/>
		<rect x="448.76" y="159.04" class="st2" width="50.6" height="24.23"/>
		<rect x="501.89" y="159.04" class="st2" width="50.6" height="24.23"/>
		<rect x="555.03" y="159.04" class="st2" width="50.6" height="24.23"/>
		<rect x="608.16" y="159.04" class="st2" width="50.6" height="24.23"/>
		<rect x="661.29" y="159.04" class="st2" width="50.6" height="24.23"/>
		<rect x="714.43" y="159.04" class="st2" width="50.6" height="24.23"/>
		<rect x="767.56" y="159.04" class="st2" width="50.6" height="24.23"/>
		<rect x="820.69" y="159.04" class="st2" width="21.2" height="24.23"/>
	</g>
	<g>
		<rect y="185.31" class="st2" width="31.12" height="24.23"/>
		<rect x="33.96" y="185.31" class="st2" width="50.58" height="24.23"/>
		<rect x="87.07" y="185.31" class="st2" width="50.58" height="24.23"/>
		<rect x="140.19" y="185.31" class="st2" width="50.58" height="24.23"/>
		<rect x="193.31" y="185.31" class="st2" width="50.58" height="24.23"/>
		<rect x="246.42" y="185.31" class="st2" width="50.58" height="24.23"/>
		<rect x="299.54" y="185.31" class="st2" width="50.58" height="24.23"/>
		<rect x="352.65" y="185.31" class="st2" width="50.58" height="24.23"/>
		<rect x="405.77" y="185.31" class="st2" width="50.58" height="24.23"/>
		<rect x="458.88" y="185.31" class="st2" width="50.58" height="24.23"/>
		<rect x="512" y="185.31" class="st2" width="50.58" height="24.23"/>
		<rect x="565.12" y="185.31" class="st2" width="50.58" height="24.23"/>
		<rect x="618.23" y="185.31" class="st2" width="50.58" height="24.23"/>
		<rect x="671.35" y="185.31" class="st2" width="50.58" height="24.23"/>
		<rect x="724.46" y="185.31" class="st2" width="50.58" height="24.23"/>
		<rect x="777.58" y="185.31" class="st2" width="50.58" height="24.23"/>
		<rect x="830.7" y="185.31" class="st2" width="11.19" height="24.23"/>
	</g>
	<g>
		<rect y="211.52" class="st2" width="20.86" height="24.23"/>
		<rect x="23.69" y="211.52" class="st2" width="50.6" height="24.23"/>
		<rect x="76.83" y="211.52" class="st2" width="50.6" height="24.23"/>
		<rect x="129.96" y="211.52" class="st2" width="50.6" height="24.23"/>
		<rect x="183.09" y="211.52" class="st2" width="50.6" height="24.23"/>
		<rect x="236.23" y="211.52" class="st2" width="50.6" height="24.23"/>
		<rect x="289.36" y="211.52" class="st2" width="50.6" height="24.23"/>
		<rect x="342.49" y="211.52" class="st2" width="50.6" height="24.23"/>
		<rect x="395.63" y="211.52" class="st2" width="50.6" height="24.23"/>
		<rect x="448.76" y="211.52" class="st2" width="50.6" height="24.23"/>
		<rect x="501.89" y="211.52" class="st2" width="50.6" height="24.23"/>
		<rect x="555.03" y="211.52" class="st2" width="50.6" height="24.23"/>
		<rect x="608.16" y="211.52" class="st2" width="50.6" height="24.23"/>
		<rect x="661.29" y="211.52" class="st2" width="50.6" height="24.23"/>
		<rect x="714.43" y="211.52" class="st2" width="50.6" height="24.23"/>
		<rect x="767.56" y="211.52" class="st2" width="50.6" height="24.23"/>
		<rect x="820.69" y="211.52" class="st2" width="21.2" height="24.23"/>
	</g>
	<g>
		<rect y="237.79" class="st2" width="31.13" height="24.23"/>
		<rect x="33.97" y="237.79" class="st2" width="50.6" height="24.23"/>
		<rect x="87.1" y="237.79" class="st2" width="50.6" height="24.23"/>
		<rect x="140.24" y="237.79" class="st2" width="50.6" height="24.23"/>
		<rect x="193.37" y="237.79" class="st2" width="50.6" height="24.23"/>
		<rect x="246.5" y="237.79" class="st2" width="50.6" height="24.23"/>
		<rect x="299.64" y="237.79" class="st2" width="50.6" height="24.23"/>
		<rect x="352.77" y="237.79" class="st2" width="50.6" height="24.23"/>
		<rect x="405.9" y="237.79" class="st2" width="50.6" height="24.23"/>
		<rect x="459.04" y="237.79" class="st2" width="50.6" height="24.23"/>
		<rect x="512.17" y="237.79" class="st2" width="50.6" height="24.23"/>
		<rect x="565.3" y="237.79" class="st2" width="50.6" height="24.23"/>
		<rect x="618.44" y="237.79" class="st2" width="50.6" height="24.23"/>
		<rect x="671.57" y="237.79" class="st2" width="50.6" height="24.23"/>
		<rect x="724.7" y="237.79" class="st2" width="50.6" height="24.23"/>
		<rect x="777.84" y="237.79" class="st2" width="50.6" height="24.23"/>
		<rect x="830.97" y="237.79" class="st2" width="10.92" height="24.23"/>
	</g>
	<g>
		<rect y="264" class="st2" width="20.86" height="24.23"/>
		<rect x="23.69" y="264" class="st2" width="50.6" height="24.23"/>
		<rect x="76.83" y="264" class="st2" width="50.6" height="24.23"/>
		<rect x="129.96" y="264" class="st2" width="50.6" height="24.23"/>
		<rect x="183.09" y="264" class="st2" width="50.6" height="24.23"/>
		<rect x="236.23" y="264" class="st2" width="50.6" height="24.23"/>
		<rect x="289.36" y="264" class="st2" width="50.6" height="24.23"/>
		<rect x="342.49" y="264" class="st2" width="50.6" height="24.23"/>
		<rect x="395.63" y="264" class="st2" width="50.6" height="24.23"/>
		<rect x="448.76" y="264" class="st2" width="50.6" height="24.23"/>
		<rect x="501.89" y="264" class="st2" width="50.6" height="24.23"/>
		<rect x="555.03" y="264" class="st2" width="50.6" height="24.23"/>
		<rect x="608.16" y="264" class="st2" width="50.6" height="24.23"/>
		<rect x="661.29" y="264" class="st2" width="50.6" height="24.23"/>
		<rect x="714.43" y="264" class="st2" width="50.6" height="24.23"/>
		<rect x="767.56" y="264" class="st2" width="50.6" height="24.23"/>
		<rect x="820.69" y="264" class="st2" width="21.2" height="24.23"/>
	</g>
	<g>
		<rect y="290.27" class="st2" width="31.13" height="24.23"/>
		<rect x="33.97" y="290.27" class="st2" width="50.6" height="24.23"/>
		<rect x="87.1" y="290.27" class="st2" width="50.6" height="24.23"/>
		<rect x="140.24" y="290.27" class="st2" width="50.6" height="24.23"/>
		<rect x="193.37" y="290.27" class="st2" width="50.6" height="24.23"/>
		<rect x="246.5" y="290.27" class="st2" width="50.6" height="24.23"/>
		<rect x="299.64" y="290.27" class="st2" width="50.6" height="24.23"/>
		<rect x="352.77" y="290.27" class="st2" width="50.6" height="24.23"/>
		<rect x="405.9" y="290.27" class="st2" width="50.6" height="24.23"/>
		<rect x="459.04" y="290.27" class="st2" width="50.6" height="24.23"/>
		<rect x="512.17" y="290.27" class="st2" width="50.6" height="24.23"/>
		<rect x="565.3" y="290.27" class="st2" width="50.6" height="24.23"/>
		<rect x="618.44" y="290.27" class="st2" width="50.6" height="24.23"/>
		<rect x="671.57" y="290.27" class="st2" width="50.6" height="24.23"/>
		<rect x="724.7" y="290.27" class="st2" width="50.6" height="24.23"/>
		<rect x="777.84" y="290.27" class="st2" width="50.6" height="24.23"/>
		<rect x="830.86" y="290.27" class="st2" width="11.03" height="24.23"/>
	</g>
	<g>
		<rect y="316.48" class="st2" width="20.86" height="24.23"/>
		<rect x="23.69" y="316.48" class="st2" width="50.6" height="24.23"/>
		<rect x="76.83" y="316.48" class="st2" width="50.6" height="24.23"/>
		<rect x="129.96" y="316.48" class="st2" width="50.6" height="24.23"/>
		<rect x="183.09" y="316.48" class="st2" width="50.6" height="24.23"/>
		<rect x="236.23" y="316.48" class="st2" width="50.6" height="24.23"/>
		<rect x="289.36" y="316.48" class="st2" width="50.6" height="24.23"/>
		<rect x="342.49" y="316.48" class="st2" width="50.6" height="24.23"/>
		<rect x="395.63" y="316.48" class="st2" width="50.6" height="24.23"/>
		<rect x="448.76" y="316.48" class="st2" width="50.6" height="24.23"/>
		<rect x="501.89" y="316.48" class="st2" width="50.6" height="24.23"/>
		<rect x="555.03" y="316.48" class="st2" width="50.6" height="24.23"/>
		<rect x="608.16" y="316.48" class="st2" width="50.6" height="24.23"/>
		<rect x="661.29" y="316.48" class="st2" width="50.6" height="24.23"/>
		<rect x="714.43" y="316.48" class="st2" width="50.6" height="24.23"/>
		<rect x="767.56" y="316.48" class="st2" width="50.6" height="24.23"/>
		<rect x="820.69" y="316.48" class="st2" width="21.2" height="24.23"/>
	</g>
	<g>
		<rect y="342.75" class="st2" width="31.13" height="24.23"/>
		<rect x="33.97" y="342.75" class="st2" width="50.6" height="24.23"/>
		<rect x="87.1" y="342.75" class="st2" width="50.6" height="24.23"/>
		<rect x="140.24" y="342.75" class="st2" width="50.6" height="24.23"/>
		<rect x="193.37" y="342.75" class="st2" width="50.6" height="24.23"/>
		<rect x="246.5" y="342.75" class="st2" width="50.6" height="24.23"/>
		<rect x="299.64" y="342.75" class="st2" width="50.6" height="24.23"/>
		<rect x="352.77" y="342.75" class="st2" width="50.6" height="24.23"/>
		<rect x="405.9" y="342.75" class="st2" width="50.6" height="24.23"/>
		<rect x="459.04" y="342.75" class="st2" width="50.6" height="24.23"/>
		<rect x="512.17" y="342.75" class="st2" width="50.6" height="24.23"/>
		<rect x="565.3" y="342.75" class="st2" width="50.6" height="24.23"/>
		<rect x="618.44" y="342.75" class="st2" width="50.6" height="24.23"/>
		<rect x="671.57" y="342.75" class="st2" width="50.6" height="24.23"/>
		<rect x="724.7" y="342.75" class="st2" width="50.6" height="24.23"/>
		<rect x="777.84" y="342.75" class="st2" width="50.6" height="24.23"/>
		<rect x="830.97" y="342.75" class="st2" width="10.92" height="24.23"/>
	</g>
	<g>
		<rect y="368.96" class="st2" width="20.86" height="24.23"/>
		<rect x="23.69" y="368.96" class="st2" width="50.6" height="24.23"/>
		<rect x="76.83" y="368.96" class="st2" width="50.6" height="24.23"/>
		<rect x="129.96" y="368.96" class="st2" width="50.6" height="24.23"/>
		<rect x="183.09" y="368.96" class="st2" width="50.6" height="24.23"/>
		<rect x="236.23" y="368.96" class="st2" width="50.6" height="24.23"/>
		<rect x="289.36" y="368.96" class="st2" width="50.6" height="24.23"/>
		<rect x="342.49" y="368.96" class="st2" width="50.6" height="24.23"/>
		<rect x="395.63" y="368.96" class="st2" width="50.6" height="24.23"/>
		<rect x="448.76" y="368.96" class="st2" width="50.6" height="24.23"/>
		<rect x="501.89" y="368.96" class="st2" width="50.6" height="24.23"/>
		<rect x="555.03" y="368.96" class="st2" width="50.6" height="24.23"/>
		<rect x="608.16" y="368.96" class="st2" width="50.6" height="24.23"/>
		<rect x="661.29" y="368.96" class="st2" width="50.6" height="24.23"/>
		<rect x="714.43" y="368.96" class="st2" width="50.6" height="24.23"/>
		<rect x="767.56" y="368.96" class="st2" width="50.6" height="24.23"/>
		<rect x="820.69" y="368.96" class="st2" width="21.2" height="24.23"/>
	</g>
	<g>
		<rect y="395.23" class="st2" width="31.13" height="24.23"/>
		<rect x="33.97" y="395.23" class="st2" width="50.6" height="24.23"/>
		<rect x="87.1" y="395.23" class="st2" width="50.6" height="24.23"/>
		<rect x="140.24" y="395.23" class="st2" width="50.6" height="24.23"/>
		<rect x="193.37" y="395.23" class="st2" width="50.6" height="24.23"/>
		<rect x="246.5" y="395.23" class="st2" width="50.6" height="24.23"/>
		<rect x="299.64" y="395.23" class="st2" width="50.6" height="24.23"/>
		<rect x="352.77" y="395.23" class="st2" width="50.6" height="24.23"/>
		<rect x="405.9" y="395.23" class="st2" width="50.6" height="24.23"/>
		<rect x="459.04" y="395.23" class="st2" width="50.6" height="24.23"/>
		<rect x="512.17" y="395.23" class="st2" width="50.6" height="24.23"/>
		<rect x="565.3" y="395.23" class="st2" width="50.6" height="24.23"/>
		<rect x="618.44" y="395.23" class="st2" width="50.6" height="24.23"/>
		<rect x="671.57" y="395.23" class="st2" width="50.6" height="24.23"/>
		<rect x="724.7" y="395.23" class="st2" width="50.6" height="24.23"/>
		<rect x="777.84" y="395.23" class="st2" width="50.6" height="24.23"/>
		<rect x="830.97" y="395.23" class="st2" width="10.92" height="24.23"/>
	</g>
	<g>
		<rect y="421.44" class="st2" width="20.86" height="24.23"/>
		<rect x="23.69" y="421.44" class="st2" width="50.6" height="24.23"/>
		<rect x="76.83" y="421.44" class="st2" width="50.6" height="24.23"/>
		<rect x="129.96" y="421.44" class="st2" width="50.6" height="24.23"/>
		<rect x="183.09" y="421.44" class="st2" width="50.6" height="24.23"/>
		<rect x="236.23" y="421.44" class="st2" width="50.6" height="24.23"/>
		<rect x="289.36" y="421.44" class="st2" width="50.6" height="24.23"/>
		<rect x="342.49" y="421.44" class="st2" width="50.6" height="24.23"/>
		<rect x="395.63" y="421.44" class="st2" width="50.6" height="24.23"/>
		<rect x="448.76" y="421.44" class="st2" width="50.6" height="24.23"/>
		<rect x="501.89" y="421.44" class="st2" width="50.6" height="24.23"/>
		<rect x="555.03" y="421.44" class="st2" width="50.6" height="24.23"/>
		<rect x="608.16" y="421.44" class="st2" width="50.6" height="24.23"/>
		<rect x="661.29" y="421.44" class="st2" width="50.6" height="24.23"/>
		<rect x="714.43" y="421.44" class="st2" width="50.6" height="24.23"/>
		<rect x="767.56" y="421.44" class="st2" width="50.6" height="24.23"/>
		<rect x="820.69" y="421.44" class="st2" width="21.2" height="24.23"/>
	</g>
	<g>
		<rect y="447.71" class="st2" width="31.13" height="24.23"/>
		<rect x="33.97" y="447.71" class="st2" width="50.6" height="24.23"/>
		<rect x="87.1" y="447.71" class="st2" width="50.6" height="24.23"/>
		<rect x="140.24" y="447.71" class="st2" width="50.6" height="24.23"/>
		<rect x="193.37" y="447.71" class="st2" width="50.6" height="24.23"/>
		<rect x="246.5" y="447.71" class="st2" width="50.6" height="24.23"/>
		<rect x="299.64" y="447.71" class="st2" width="50.6" height="24.23"/>
		<rect x="352.77" y="447.71" class="st2" width="50.6" height="24.23"/>
		<rect x="405.9" y="447.71" class="st2" width="50.6" height="24.23"/>
		<rect x="459.04" y="447.71" class="st2" width="50.6" height="24.23"/>
		<rect x="512.17" y="447.71" class="st2" width="50.6" height="24.23"/>
		<rect x="565.3" y="447.71" class="st2" width="50.6" height="24.23"/>
		<rect x="618.44" y="447.71" class="st2" width="50.6" height="24.23"/>
		<rect x="671.57" y="447.71" class="st2" width="50.6" height="24.23"/>
		<rect x="724.7" y="447.71" class="st2" width="50.6" height="24.23"/>
		<rect x="777.84" y="447.71" class="st2" width="50.6" height="24.23"/>
		<rect x="830.97" y="447.71" class="st2" width="10.92" height="24.23"/>
	</g>
	<g>
		<rect y="473.92" class="st2" width="20.86" height="24.23"/>
		<rect x="23.69" y="473.92" class="st2" width="50.6" height="24.23"/>
		<rect x="76.83" y="473.92" class="st2" width="50.6" height="24.23"/>
		<rect x="129.96" y="473.92" class="st2" width="50.6" height="24.23"/>
		<rect x="183.09" y="473.92" class="st2" width="50.6" height="24.23"/>
		<rect x="236.23" y="473.92" class="st2" width="50.6" height="24.23"/>
		<rect x="289.36" y="473.92" class="st2" width="50.6" height="24.23"/>
		<rect x="342.49" y="473.92" class="st2" width="50.6" height="24.23"/>
		<rect x="395.63" y="473.92" class="st2" width="50.6" height="24.23"/>
		<rect x="448.76" y="473.92" class="st2" width="50.6" height="24.23"/>
		<rect x="501.89" y="473.92" class="st2" width="50.6" height="24.23"/>
		<rect x="555.03" y="473.92" class="st2" width="50.6" height="24.23"/>
		<rect x="608.16" y="473.92" class="st2" width="50.6" height="24.23"/>
		<rect x="661.29" y="473.92" class="st2" width="50.6" height="24.23"/>
		<rect x="714.43" y="473.92" class="st2" width="50.6" height="24.23"/>
		<rect x="767.56" y="473.92" class="st2" width="50.6" height="24.23"/>
		<rect x="820.69" y="473.92" class="st2" width="21.2" height="24.23"/>
	</g>
	<g>
		<rect y="500.2" class="st2" width="31.13" height="24.23"/>
		<rect x="33.97" y="500.2" class="st2" width="50.6" height="24.23"/>
		<rect x="87.1" y="500.2" class="st2" width="50.6" height="24.23"/>
		<rect x="140.24" y="500.2" class="st2" width="50.6" height="24.23"/>
		<rect x="193.37" y="500.2" class="st2" width="50.6" height="24.23"/>
		<rect x="246.5" y="500.2" class="st2" width="50.6" height="24.23"/>
		<rect x="299.64" y="500.2" class="st2" width="50.6" height="24.23"/>
		<rect x="352.77" y="500.2" class="st2" width="50.6" height="24.23"/>
		<rect x="405.9" y="500.2" class="st2" width="50.6" height="24.23"/>
		<rect x="459.04" y="500.2" class="st2" width="50.6" height="24.23"/>
		<rect x="512.17" y="500.2" class="st2" width="50.6" height="24.23"/>
		<rect x="565.3" y="500.2" class="st2" width="50.6" height="24.23"/>
		<rect x="618.44" y="500.2" class="st2" width="50.6" height="24.23"/>
		<rect x="671.57" y="500.2" class="st2" width="50.6" height="24.23"/>
		<rect x="724.7" y="500.2" class="st2" width="50.6" height="24.23"/>
		<rect x="777.84" y="500.2" class="st2" width="50.6" height="24.23"/>
		<rect x="830.97" y="500.2" class="st2" width="10.92" height="24.23"/>
	</g>
</g>
<rect y="526.69" class="st3" width="841.89" height="68.58"/>
<g>
	<g>
		<path class="st4" d="M450.85,112.12c0,0.01,0,0.01,0,0.01c0,1.23-4.83,2.24-10.78,2.24V75.52c-1.18,0-2.31-0.05-3.33-0.14
			l-0.63,38.84c-3.99-0.33-6.81-1.14-6.81-2.08c0-0.01,0-0.01,0-0.01l1.92-38.44h17.71L450.85,112.12z"/>
		<g>
			<path class="st4" d="M464,122.14c-8.6,4.83-17.49,6.14-25.2,5.91l1.27-13.68c-1.4,0-2.74-0.06-3.96-0.16v0.16l-5.47,12.86
				c-8.24-1.38-13.78-3.99-13.78-3.99l12.44-11.11h21.55L464,122.14z"/>
			<path class="st5" d="M448.93,73.68c0,1.02-3.97,1.84-8.86,1.84c-1.18,0-2.31-0.05-3.33-0.14c-3.24-0.27-5.52-0.92-5.52-1.7
				c0-1.01,3.96-1.83,8.85-1.83C444.96,71.85,448.93,72.67,448.93,73.68z"/>
			<path class="st6" d="M440.07,75.52v38.86c-1.4,0-2.74-0.06-3.96-0.16l0.63-38.84C437.76,75.46,438.89,75.52,440.07,75.52z"/>
			<path class="st6" d="M440.07,114.37l-1.27,13.68c-2.92-0.09-5.67-0.4-8.17-0.82l5.47-12.86v-0.16
				C437.33,114.31,438.67,114.37,440.07,114.37z"/>
		</g>
	</g>
	<path class="st7" d="M439.29,0v73.91c1.19,0.72,1.94,0,1.94,0V0H439.29z"/>
</g>
<g>
	<g>
		<path class="st4" d="M639.11,112.12c0,0.01,0,0.01,0,0.01c0,1.23-4.83,2.24-10.78,2.24V75.52c-1.18,0-2.31-0.05-3.33-0.14
			l-0.63,38.84c-3.99-0.33-6.81-1.14-6.81-2.08c0-0.01,0-0.01,0-0.01l1.92-38.44h17.71L639.11,112.12z"/>
		<g>
			<path class="st4" d="M652.27,122.14c-8.6,4.83-17.49,6.14-25.2,5.91l1.27-13.68c-1.4,0-2.74-0.06-3.96-0.16v0.16l-5.47,12.86
				c-8.24-1.38-13.78-3.99-13.78-3.99l12.44-11.11h21.55L652.27,122.14z"/>
			<path class="st5" d="M637.19,73.68c0,1.02-3.97,1.84-8.86,1.84c-1.18,0-2.31-0.05-3.33-0.14c-3.24-0.27-5.52-0.92-5.52-1.7
				c0-1.01,3.96-1.83,8.85-1.83C633.23,71.85,637.19,72.67,637.19,73.68z"/>
			<path class="st6" d="M628.34,75.52v38.86c-1.4,0-2.74-0.06-3.96-0.16L625,75.38C626.03,75.46,627.16,75.52,628.34,75.52z"/>
			<path class="st6" d="M628.34,114.37l-1.27,13.68c-2.92-0.09-5.67-0.4-8.17-0.82l5.47-12.86v-0.16
				C625.6,114.31,626.94,114.37,628.34,114.37z"/>
		</g>
	</g>
	<path class="st7" d="M627.56,0v73.91c1.19,0.72,1.94,0,1.94,0V0H627.56z"/>
</g>
<g>
	<g>
		<path class="st4" d="M767.38,112.12c0,0.01,0,0.01,0,0.01c0,1.23-4.83,2.24-10.78,2.24V75.52c-1.18,0-2.31-0.05-3.33-0.14
			l-0.63,38.84c-3.99-0.33-6.81-1.14-6.81-2.08c0-0.01,0-0.01,0-0.01l1.92-38.44h17.71L767.38,112.12z"/>
		<g>
			<path class="st4" d="M780.53,122.14c-8.6,4.83-17.48,6.14-25.2,5.91l1.27-13.68c-1.4,0-2.74-0.06-3.96-0.16v0.16l-5.47,12.86
				c-8.24-1.38-13.78-3.99-13.78-3.99l12.44-11.11h21.55L780.53,122.14z"/>
			<path class="st5" d="M765.46,73.68c0,1.02-3.97,1.84-8.86,1.84c-1.18,0-2.31-0.05-3.33-0.14c-3.24-0.27-5.52-0.92-5.52-1.7
				c0-1.01,3.96-1.83,8.85-1.83C761.49,71.85,765.46,72.67,765.46,73.68z"/>
			<path class="st6" d="M756.6,75.52v38.86c-1.4,0-2.74-0.06-3.96-0.16l0.63-38.84C754.29,75.46,755.43,75.52,756.6,75.52z"/>
			<path class="st6" d="M756.6,114.37l-1.27,13.68c-2.92-0.09-5.67-0.4-8.17-0.82l5.47-12.86v-0.16
				C753.86,114.31,755.2,114.37,756.6,114.37z"/>
		</g>
	</g>
	<path class="st7" d="M755.82,0v73.91c1.19,0.72,1.94,0,1.94,0V0H755.82z"/>
</g>
<g>
	<g>
		<rect x="477.13" y="225.26" class="st8" width="263.12" height="165.74"/>
		<polygon class="st8" points="511.92,225.26 628.05,391 477.13,391 477.13,225.26 		"/>
		<polygon class="st9" points="697.47,391 628.05,391 511.92,225.26 581.34,225.26 		"/>
		<polygon class="st9" points="740.25,302.7 740.25,391 732.71,391 616.57,225.26 685.99,225.26 		"/>
		<path class="st3" d="M468.54,216.67v182.92h280.29V216.67H468.54z M740.25,391H477.13V225.26h263.12V391z"/>
		<polygon class="st8" points="616.57,225.26 732.71,391 697.47,391 581.34,225.26 		"/>
		<polygon class="st8" points="740.25,225.26 740.25,302.7 685.99,225.26 		"/>
		<rect x="477.13" y="224.87" class="st10" width="263.12" height="6.06"/>
		<rect x="477.13" y="224.87" class="st11" width="263.12" height="1.73"/>
		<rect x="477.13" y="234.54" class="st10" width="263.12" height="6.06"/>
		<rect x="477.13" y="244.64" class="st10" width="263.12" height="6.06"/>
		<rect x="485.57" y="247.67" class="st10" width="1.73" height="109.22"/>
		<polygon class="st10" points="488.17,368.15 484.7,368.15 485.57,356.89 487.3,356.89 		"/>
	</g>
	<g>
		<path class="st12" d="M449.22,399.97l-2.55-4.83h-36.76l-2.55,4.83c-0.12,0.12-0.19,0.23-0.19,0.35c0,1.49,9.45,2.7,21.12,2.7
			c11.66,0,21.12-1.21,21.12-2.7C449.4,400.2,449.34,400.09,449.22,399.97z"/>
		<g>
			<path class="st12" d="M447.84,321.43l30.11-14.08c0,0-8.56-15.04-21.8-9.39C440.8,304.52,447.84,321.43,447.84,321.43z"/>
		</g>
		<path class="st4" d="M452.79,300.47c0,0,7.84-3.37,19.93,9.33l-7.5,3.51c0,0-4.07-9.11-12.9-9.99L452.79,300.47z"/>
		<g>
			<path class="st13" d="M436.01,298.11l0.68,5.52l11.05,5.43c0,0,5.76-4.14,4.98-9.23l-10.85-5.68l-4.79,1.56L436.01,298.11z"/>
		</g>
		<g>
			<polygon class="st13" points="435,294.16 437.09,295.72 436.01,298.11 433.5,297.22 			"/>
		</g>
		<g>
			<polygon class="st14" points="427,393.92 389.73,346.15 428.41,303.31 429.86,304.62 392.28,346.24 428.54,392.72 			"/>
		</g>
		<g>
			<polygon class="st14" points="432.73,393.4 395.39,345.9 431.75,306.76 433.19,308.09 397.96,346 434.27,392.19 			"/>
		</g>
		<g>
			<path class="st13" d="M425.96,306.77c-0.3-1.59-1.61-5.78-4.01-6c-0.96-0.09-2.75,0.41-4.49,0.9c-3.29,0.92-6.69,1.87-8.35,0.35
				c-0.79-0.72-1.04-1.87-0.76-3.41c0.38-2.1,1.7-3.82,3.82-4.96c5.02-2.71,14.07-2.02,23.06,1.76l-0.61,1.44
				c-8.57-3.61-17.09-4.33-21.71-1.83c-1.71,0.92-2.72,2.22-3.02,3.86c-0.18,0.98-0.09,1.64,0.28,1.97c1.02,0.93,4.4-0.01,6.88-0.71
				c2.05-0.57,3.81-1.07,5.05-0.95c4.06,0.38,5.35,6.99,5.4,7.27L425.96,306.77z"/>
		</g>
		<g>
			<polygon class="st13" points="425.36,306.68 429.34,309.22 426.05,311.89 428.17,314.4 437.48,309.8 428.41,303.31 			"/>
		</g>
		<g>
			<polygon class="st13" points="434.74,307.84 435.24,310.97 442.51,310.97 442.51,308.43 			"/>
		</g>
		<g>
			<polygon class="st13" points="442.27,305.1 440.56,309.41 442.51,310.97 444.96,306.63 			"/>
		</g>
		<g>
			<path class="st13" d="M446.67,395.14c0,1.3-8.23,2.35-18.38,2.35c-10.15,0-18.38-1.05-18.38-2.35c0-1.3,8.23-2.35,18.38-2.35
				C438.44,392.8,446.67,393.85,446.67,395.14z"/>
		</g>
		<g>
			<path class="st15" d="M430.14,386.54l-7.98,0.5l-3.74,8.2c8.77,2.9,18.28,0,18.28,0L430.14,386.54z"/>
		</g>
		<polygon class="st14" points="396.74,339.73 396.02,341.47 403.39,339.52 404.24,337.97 		"/>
		<circle class="st16" cx="432.21" cy="308.86" r="0.86"/>
		<path class="st16" d="M393.08,341.73c0.23,0.13,2.44,2.28,2.44,2.28l-2.18,2.15l2.67,3.55l-2.64,1.6l-4.27-5.15L393.08,341.73z"/>
		<path class="st16" d="M398.4,341.47c0.23,0.13,2.44,2.28,2.44,2.28l-2.18,2.15l2.67,3.55l-2.64,1.6l-4.27-5.15L398.4,341.47z"/>
		<path class="st17" d="M398.23,346.13c0,0.59-0.48,1.07-1.07,1.07s-1.07-0.48-1.07-1.07s0.48-1.07,1.07-1.07
			S398.23,345.54,398.23,346.13z"/>
		<path class="st17" d="M392.56,346.26c0,0.59-0.48,1.07-1.07,1.07s-1.07-0.48-1.07-1.07s0.48-1.07,1.07-1.07
			S392.56,345.67,392.56,346.26z"/>
	</g>
	<g>
		<g>
			<g>
				<path class="st18" d="M806.03,423.95c0,0-2.83-2.67-7.28-5.49c-4.49-2.88-10.49-5.68-17.5-6.93c-0.05-0.03-0.09-0.04-0.07-0.01
					c-0.03,0,0,0.02,0.04,0.06c4.05,6.12,10.66,9.25,15.75,10.8C802.13,423.94,806.03,423.95,806.03,423.95z"/>
			</g>
			<g>
				<path class="st18" d="M762.5,422.62c0,0,0.88,0.1,2.35,0.19c1.47,0.08,3.52,0.15,5.92-0.04c2.4-0.19,5.16-0.65,7.96-1.69
					c2.75-1.06,5.78-2.7,7.71-5.49c0.04-0.03,0.06-0.06,0.04-0.05c0.01-0.02-0.02-0.01-0.07,0.01c-3.24,0.24-6.16,0.3-8.98,0.86
					c-2.8,0.5-5.41,1.29-7.64,2.18c-2.23,0.89-4.08,1.88-5.35,2.67C763.17,422.03,762.5,422.62,762.5,422.62z"/>
			</g>
			<g>
				<path class="st18" d="M815.47,397.33c0,0-4.97,0.84-11.41,3.81c-6.36,2.96-14.56,7.88-19.57,15.8
					c-0.05,0.06-0.08,0.09-0.05,0.08c-0.02,0.03,0.02,0.01,0.09-0.04c8.46-3.37,16.09-7.93,21.71-12.13
					C811.83,400.72,815.47,397.33,815.47,397.33z"/>
			</g>
			<g>
				<path class="st18" d="M810.94,415.56c0,0-2.86-1.63-7.27-2.25c-4.34-0.63-10.3-0.31-15.18,3.33c-0.05,0.02-0.07,0.03-0.05,0.04
					c-0.02,0.01,0.01,0.02,0.06,0.02c5.74,2.01,11.06,1.74,15.28,0.92C807.93,416.79,810.94,415.56,810.94,415.56z"/>
			</g>
			<g>
				<path class="st18" d="M799.95,373.86c0,0-0.88,1.24-2.09,3.55c-1.21,2.31-2.72,5.69-4.16,9.76c-1.46,4.06-2.82,8.83-4.14,13.76
					c-0.68,2.46-1.38,4.99-2.1,7.56c-0.72,2.56-1.46,5.09-2.71,7.58c-0.06,0.08-0.08,0.12-0.05,0.1c-0.02,0.04,0.02,0,0.09-0.07
					c2.34-1.55,4.23-3.88,5.71-6.27c1.46-2.38,2.71-4.85,3.67-7.41c1.91-5.05,2.92-9.94,3.68-14.17c0.74-4.23,1.19-7.83,1.54-10.37
					C799.74,375.35,799.95,373.86,799.95,373.86z"/>
			</g>
			<g>
				<path class="st18" d="M764.44,375.68c0,0,1.12,5.91,4.55,13.8c3.4,7.87,9.27,17.68,17.74,24.81c0.06,0.07,0.1,0.11,0.09,0.07
					c0.03,0.03,0.01-0.02-0.04-0.11c-3.77-10.35-9.38-19.72-14-26.82C768.16,380.37,764.44,375.68,764.44,375.68z"/>
			</g>
			<g>
				<path class="st18" d="M785.34,413.85c0,0,0.32-4.98-0.53-11.89c-0.85-6.91-2.88-15.73-7.63-23.63
					c-0.03-0.07-0.04-0.11-0.05-0.08c-0.02-0.03-0.02,0.02-0.01,0.09c-0.83,9.08,1.24,18.01,3.5,24.61
					C782.88,409.56,785.34,413.85,785.34,413.85z"/>
			</g>
			<g>
				<path class="st18" d="M786.83,414.16c0,0-3.55-2.95-9.19-6c-5.66-3.1-13.22-6.15-21.56-7.45c-0.07-0.03-0.11-0.04-0.09-0.01
					c-0.03,0,0,0.02,0.06,0.06c5.77,6.39,13.82,9.65,19.97,11.39C782.24,413.88,786.83,414.16,786.83,414.16z"/>
			</g>
			<g>
				<path class="st18" d="M785.11,350.11c0,0-0.94,8.02-2.13,19.5c-0.55,5.76-1.08,12.47-0.94,19.64
					c0.13,7.15,1.03,14.81,3.35,21.76c0.02,0.13,0.04,0.2,0.04,0.14c0.02,0.05,0.02-0.02,0.01-0.15c0.51-7.45,1.06-14.73,1.46-21.75
					c0.39-7,0.56-13.7,0.38-19.54c-0.15-5.84-0.65-10.78-1.18-14.22C785.58,352.06,785.11,350.11,785.11,350.11z"/>
			</g>
			<g>
				<g>
					<g>
						<path class="st19" d="M755.31,411.66c0,0,4.22,1.47,10.24,2.8c6.08,1.38,13.86,2.24,22.01,1.72c0.07,0.01,0.11,0.01,0.09,0
							c0.03,0,0-0.02-0.07-0.05c-6.81-5.03-15.37-6.01-21.61-5.94C759.63,410.26,755.31,411.66,755.31,411.66z"/>
					</g>
					<g>
						<path class="st19" d="M792.11,361.15c0,0-1.89,7.31-3.65,17.96c-1.76,10.67-3.48,24.64-2.86,38.49
							c-0.01,0.12-0.01,0.19,0.01,0.14c0,0.05,0.02-0.02,0.05-0.13c5.01-12.97,6.76-27.22,7.09-38.08
							C793.08,368.65,792.11,361.15,792.11,361.15z"/>
					</g>
					<g>
						<path class="st19" d="M759.76,390.86c0,0,0.38,1.15,1.48,2.88c1.08,1.74,2.8,4.06,5.08,6.53c4.58,4.9,11.15,10.56,19.32,13.84
							c0.06,0.04,0.1,0.06,0.08,0.04c0.03,0.01,0-0.02-0.05-0.08c-4.44-7.59-11.08-13.28-16.53-17.03c-2.71-1.89-5.1-3.36-6.77-4.42
							C760.7,391.57,759.76,390.86,759.76,390.86z"/>
					</g>
					<g>
						<path class="st19" d="M808.99,384.9c0,0-4.18,2.77-9.01,7.93c-4.83,5.14-10.27,12.76-12.62,21.71
							c-0.04,0.07-0.05,0.11-0.03,0.09c-0.01,0.03,0.02,0,0.07-0.06c7.13-5.83,12.35-13.17,15.99-19.13
							C807.03,389.48,808.99,384.9,808.99,384.9z"/>
					</g>
					<g>
						<path class="st19" d="M775.79,357.39c0,0-0.32,1.88-0.6,5.15c-0.28,3.27-0.53,7.94-0.29,13.47
							c0.24,5.52,0.95,11.91,2.48,18.49c0.76,3.29,1.72,6.63,2.9,9.92c1.16,3.27,2.46,6.5,3.94,9.71c0.04,0.12,0.06,0.18,0.06,0.13
							c0.02,0.05,0.01-0.02,0-0.14c-0.12-7.01-1.18-14.03-2.12-20.53c-0.98-6.54-2.03-12.69-2.97-18.04
							c-0.97-5.36-1.8-9.89-2.38-13.09C776.16,359.26,775.79,357.39,775.79,357.39z"/>
					</g>
					<g>
						<path class="st19" d="M813.42,409.07c0,0-0.85-0.29-2.34-0.52c-1.49-0.24-3.61-0.42-6.07-0.28
							c-4.91,0.26-11.1,1.77-16.26,5.98c-0.05,0.02-0.08,0.04-0.05,0.04c-0.02,0.01,0.01,0.02,0.07,0.01
							c6.55,1.32,12.61-0.17,17.1-1.81c2.25-0.83,4.11-1.7,5.44-2.34C812.63,409.49,813.42,409.07,813.42,409.07z"/>
					</g>
				</g>
				<path class="st19" d="M787.57,416.17c-0.25,0.02-4.26,10.44-13.07,12.7c0,0,3.51-11.37,9.8-13.35l-1.54-3.33
					c0,0,3.27,0.73,3.81-0.68c0.53-1.41,4.28,2.14,4.97,2.34C792.23,414.05,787.57,416.17,787.57,416.17z"/>
			</g>
		</g>
		<polygon class="st20" points="783.25,415.29 778.31,523.05 790.29,523.05 787.31,415.29 		"/>
		<g>
			<path class="st21" d="M766.1,404.56v1.24c-1.97-0.35-3.9-0.84-5.82-1.46l0.03-1.27C762.23,403.69,764.15,404.21,766.1,404.56z"/>
		</g>
		<g>
			<g>
				<g>
					<path class="st22" d="M740.44,382.4c0,0,0.94,0.37,2.56,0.86c1.62,0.49,3.91,1.09,6.56,1.65c2.66,0.57,5.66,1.09,8.8,1.56
						c3.21,0.46,6.59,0.95,10.15,1.46c0.06,0.02,0.09,0.03,0.08,0.01c0.03,0,0-0.02-0.05-0.06c-2.24-3.02-5.67-5.09-9.06-6.14
						c-3.41-1.08-6.77-1.27-9.6-1.13c-2.84,0.15-5.2,0.63-6.84,1.03C741.39,382.05,740.44,382.4,740.44,382.4z"/>
				</g>
				<g>
					<path class="st22" d="M794.49,340.7c0,0-1.32,1.22-3.42,3.5c-2.1,2.27-4.96,5.62-7.94,9.89c-5.99,8.48-12.36,20.89-14.37,34.03
						c-0.03,0.11-0.05,0.17-0.02,0.13c-0.01,0.05,0.02-0.01,0.08-0.11c7.31-11,13.34-22.71,18.01-31.83
						c2.29-4.58,4.22-8.46,5.59-11.2C793.75,342.34,794.49,340.7,794.49,340.7z"/>
				</g>
				<g>
					<path class="st22" d="M795.17,377.31c0,0-16.15,0.01-27.06,10.25c-0.05,0.03-0.08,0.05-0.06,0.05c-0.02,0.02,0.02,0.01,0.08,0
						C783.08,388.03,795.17,377.31,795.17,377.31z"/>
				</g>
				<g>
					<path class="st22" d="M774.02,319.75c0,0-0.38,2.2-1.03,5.99c-0.68,3.77-1.83,9.05-3.13,15.37
						c-1.26,6.31-2.65,13.77-2.79,21.85c-0.07,4.02,0.16,8.11,0.55,12.18c0.2,2.04,0.43,4.08,0.69,6.12l0.39,3.03
						c0.08,0.95,0.11,1.98-0.6,2.75c-0.11,0.09-0.17,0.14-0.12,0.12c-0.04,0.04,0.03,0,0.15-0.07c0.98-0.49,1.4-1.7,1.62-2.72
						c0.21-1.07,0.34-2.06,0.49-3.09c0.28-2.05,0.51-4.1,0.7-6.13c0.33-4.04,0.65-8.05,0.97-11.94c0.64-7.68,1.64-15.01,2.19-21.48
						c0.59-6.46,0.69-12,0.48-15.88C774.39,321.97,774.02,319.75,774.02,319.75z"/>
				</g>
				<g>
					<path class="st22" d="M796.3,362.9c0,0-4.66,2.1-10.61,6.24c-2.98,2.07-6.27,4.65-9.45,7.71c-3.08,3.05-6.41,7.02-7.54,11.71
						c-0.03,0.07-0.05,0.12-0.03,0.09c-0.01,0.03,0.02,0,0.07-0.07c3.55-3.1,7.24-5.38,10.72-8.11c3.5-2.64,6.53-5.47,9.02-8.07
						C793.46,367.21,796.3,362.9,796.3,362.9z"/>
				</g>
				<path class="st23" d="M770.16,404.61c-1.95-0.35-3.87-0.87-5.79-1.49l0.27-10.93l0.08-3h5.19v0.35l0.05,3.17L770.16,404.61z"/>
				<path class="st23" d="M770.29,414.26c-2.06,0.16-4.14,0.22-6.22,0.16l0.27-10.04c1.92,0.62,3.84,1.11,5.82,1.46L770.29,414.26z"
					/>
				<path class="st23" d="M770.48,426.79c-2.22,0.3-4.46,0.51-6.74,0.62l0.3-11.77c2.11,0.05,4.19,0,6.28-0.19L770.48,426.79z"/>
				<path class="st23" d="M770.7,440.88c-2.46-0.54-4.9-1.27-7.25-2.22l0.27-10.06c2.27-0.08,4.54-0.3,6.79-0.6L770.7,440.88z"/>
				<path class="st23" d="M770.75,445.97c-2.52-0.35-4.98-0.81-7.44-1.38l0.11-4.63c2.38,0.89,4.79,1.62,7.28,2.16L770.75,445.97z"
					/>
				<path class="st23" d="M770.92,456.84c-2.62,0-5.28-0.16-7.9-0.49l0.27-10.52c2.46,0.57,4.98,1.03,7.49,1.38L770.92,456.84z"/>
				<path class="st23" d="M771.05,465.77c-2.76,0.54-5.55,1.03-8.33,1.43l0.27-9.6c2.65,0.3,5.3,0.46,7.95,0.46L771.05,465.77z"/>
				<path class="st23" d="M771.19,473.72c-2.65,1.51-5.63,2.33-8.68,2.41l0.19-7.71c2.81-0.41,5.6-0.89,8.39-1.41L771.19,473.72z"/>
				<path class="st23" d="M771.38,486.41c-3.03,0.7-6.09,1.03-9.17,1.03l0.27-10.09c3.06-0.08,6.03-0.87,8.74-2.3L771.38,486.41z"/>
				<path class="st23" d="M771.51,496.56c-3.22-0.16-6.38-0.7-9.5-1.6l0.16-6.3c3.14,0.03,6.19-0.32,9.22-1L771.51,496.56z"/>
				<path class="st23" d="M771.62,503.62c-3.27,0-6.52-0.22-9.79-0.54l0.16-6.87c3.11,0.89,6.3,1.41,9.55,1.54L771.62,503.62z"/>
				<path class="st23" d="M772,528.15h-10.82l0.62-23.91c3.27,0.38,6.57,0.54,9.85,0.57L772,528.15z"/>
				<g>
					<path class="st22" d="M737.15,342.14c0,0,2.57,7.35,7.87,17.22c5.28,9.87,11.09,20,21.57,29.74c-2.31-2.23-0.59-0.47-0.3,0.09
						c0,1.44,4.01,0.32,3.95,0.22c-5.82-13.03-15.08-23.26-21.56-32.32C742.2,348.04,737.15,342.14,737.15,342.14z"/>
				</g>
				<g>
					<path class="st24" d="M761.18,323.91c0,0-0.08,0.54-0.24,1.53c-0.14,1-0.39,2.47-0.5,4.35c-0.33,3.75-0.39,9.14,0.23,15.44
						c0.59,6.3,1.84,13.47,3.38,20.89c1.54,7.44,3.27,15.13,4.69,22.98c0.01,0.14,0.02,0.22,0.03,0.16
						c0.01,0.06,0.02-0.02,0.03-0.16c1.45-7.88,1.09-16.19,0.05-23.79c-1.04-7.64-2.63-14.66-3.91-20.73
						c-1.32-6.06-2.31-11.19-2.88-14.85C761.5,326.05,761.18,323.91,761.18,323.91z"/>
				</g>
				<g>
					<path class="st24" d="M804.12,364.19c0,0-5.23,2.32-12.37,6.34c-7.14,4.03-16.21,9.72-24.01,16.76
						c-0.08,0.05-0.12,0.08-0.08,0.07c-0.03,0.02,0.02,0,0.1-0.04c9.93-3.48,19.11-9.25,25.7-14.17
						C800.06,368.23,804.12,364.19,804.12,364.19z"/>
				</g>
				<g>
					<path class="st24" d="M744.66,336.52c0,0,1.72,7.24,5.48,17.22c1.88,4.99,4.26,10.67,7.2,16.47c1.45,2.89,3.12,5.85,4.76,8.7
						c1.6,2.86,3.13,5.74,3.74,9.11c0.01,0.12,0.01,0.19,0.03,0.14c0.01,0.05,0.02-0.02,0.03-0.14c0.84-3.36,0.24-7.09-0.72-10.39
						c-1-3.33-2.19-6.4-3.4-9.43c-2.45-6.02-5.17-11.55-7.7-16.25C748.99,342.57,744.66,336.52,744.66,336.52z"/>
				</g>
				<g>
					<path class="st24" d="M731.59,369.06c0,0,4.16,3.36,10.57,7.26c6.43,3.91,15.04,8.41,24.62,10.71c0.08,0.03,0.12,0.05,0.1,0.02
						c0.03,0.01,0-0.02-0.07-0.07c-6.73-7.24-15.66-11.9-22.77-14.53C736.9,369.8,731.59,369.06,731.59,369.06z"/>
				</g>
				<g>
					<path class="st24" d="M745.17,391.14c0,0,3.13,0.43,7.19,0.22c4.11-0.23,9.08-1.04,14.08-4.14c0.05-0.01,0.07-0.02,0.05-0.03
						c0.02-0.01-0.01-0.02-0.05-0.02c-5.37-2.6-11.14-1.67-15.06,0.01C747.4,388.85,745.17,391.14,745.17,391.14z"/>
				</g>
				<g>
					<path class="st24" d="M732.25,357.53c0,0,1.03,1.12,2.9,2.91c1.86,1.8,4.57,4.26,7.81,7.05c6.54,5.63,14.97,12.24,23.67,19.11
						c0.07,0.07,0.11,0.11,0.09,0.07c0.03,0.02,0.01-0.02-0.05-0.1c-2.13-5.19-5.61-9.85-9.45-13.61
						c-3.85-3.78-8.02-6.71-11.75-8.96c-3.74-2.25-7.06-3.83-9.43-4.89C733.68,358.05,732.25,357.53,732.25,357.53z"/>
				</g>
				<g>
					<path class="st24" d="M763.61,338.13c0,0-0.38,1.63-0.8,4.47c-0.42,2.84-0.88,6.91-0.95,11.74
						c-0.19,9.63,1.29,22.45,6.52,33.65c0.03,0.1,0.05,0.16,0.05,0.12c0.02,0.04,0.02-0.02,0-0.13c0.37-12.29-1.03-24.46-2.28-33.89
						c-0.64-4.7-1.26-8.68-1.74-11.5C763.95,339.77,763.61,338.13,763.61,338.13z"/>
				</g>
				<g>
					<path class="st24" d="M757.03,371.39c0,0-0.26,0.75-0.13,2.11c0.11,1.37,0.74,3.2,1.55,5.01c0.84,1.85,2.01,3.87,3.61,5.73
						c0.8,0.93,1.72,1.83,2.75,2.65c1.04,0.88,2.12,1.24,2.87,2.46c0.01,0.04,0.03,0.12,0.04,0.1c0.25,0.16,0.49,0.06,0.49,0.02
						c0.75-1.37-0.31-3.3-0.67-4.47c-0.4-1.26-0.91-2.43-1.49-3.52c-1.17-2.16-2.63-3.97-4.07-5.42c-1.46-1.48-2.78-2.43-3.63-3.24
						C757.49,372.02,757.03,371.39,757.03,371.39z"/>
				</g>
				<g>
					<path class="st24" d="M795.54,350.55c0,0-4.59,4.22-10.36,10.93c-5.77,6.73-12.69,15.4-17.5,25.82
						c-0.06,0.08,0.21,0.26,0.24,0.24c-0.02,0.04,0.08,0.06,0.15-0.01c9.25-6.84,15.97-15.9,20.59-23.52
						C793.31,356.39,795.54,350.55,795.54,350.55z"/>
				</g>
				<g>
					<path class="st24" d="M805.45,378.13c0,0-1.31,0.31-3.55,0.83c-2.23,0.49-5.35,1.08-9.05,1.64
						c-7.33,1.16-17.36,2.41-26.43,6.82c-0.08,0.02-0.13,0.04-0.09,0.04c-0.03,0.02,0.02,0.02,0.1,0.01
						c9.93,1.22,19.95-0.03,27.49-2.71c3.74-1.32,6.7-3,8.63-4.33C804.49,379.08,805.45,378.13,805.45,378.13z"/>
				</g>
				<g>
					<path class="st24" d="M795.48,389.28c0,0-3.68-1.23-8.87-1.99c-5.22-0.76-11.9-1.1-18.8,0.92c-0.06,0-0.09,0.01-0.07,0.02
						c-0.02,0.01,0.01,0.02,0.06,0.04c6.26,3.64,13.45,4.01,18.77,3.32C791.93,390.91,795.48,389.28,795.48,389.28z"/>
				</g>
				<g>
					<path class="st24" d="M756.11,398.77c0,0,0.59-0.27,1.47-0.8c0.88-0.53,2.03-1.33,3.2-2.26c1.18-0.94,2.33-1.96,3.46-3.11
						c1.16-1.15,2.18-2.52,3.96-4.16c0.03-0.01,0.05-0.02,0.04-0.03c0.01-0.01-0.01-0.02-0.04-0.02c-2.16-1.24-4.91-0.82-6.83,0.3
						c-1.98,1.12-3.26,2.86-3.99,4.39c-0.74,1.56-1.02,2.99-1.15,4.02C756.09,398.12,756.11,398.77,756.11,398.77z"/>
				</g>
				<g>
					<path class="st24" d="M781.96,397.3c0,0-1.45-2.3-3.92-4.6c-2.51-2.32-5.95-4.62-11.04-5.06c-0.03-0.02-0.06-0.02-0.05-0.01
						c-0.02,0-0.01,0.02,0.02,0.05c1.56,4.92,5.54,7.59,8.88,8.72C779.22,397.56,781.96,397.3,781.96,397.3z"/>
				</g>
				<path class="st24" d="M765.51,390.08c0.32,0,2.63,0.57,3.96-0.17c1.33-0.74-2.86-3.33-2.97-3.22c-0.11,0.11-1.85,1.48-1.85,1.48
					L765.51,390.08z"/>
				<g>
					<path class="st24" d="M769.09,385.68c0,0,0.64-1.69,1.73-4.59c1.04-2.9,2.51-7,4.25-11.84c3.41-9.71,7.87-22.16,11.1-35.04
						c0.04-0.11,0.06-0.17,0.03-0.13c0.01-0.05-0.03,0.01-0.08,0.11c-8.39,10.41-13.16,23.67-15.2,33.92
						c-1.06,5.14-1.5,9.55-1.68,12.66C769.05,383.87,769.09,385.68,769.09,385.68z"/>
				</g>
			</g>
			<g>
				<path class="st21" d="M770.32,415.45c-2.08,0.19-4.17,0.24-6.28,0.19l0.03-1.22c2.08,0.05,4.17,0,6.22-0.16L770.32,415.45z"/>
			</g>
			<g>
				<path class="st21" d="M770.51,428.01c-2.25,0.3-4.52,0.51-6.79,0.6l0.03-1.19c2.27-0.11,4.52-0.32,6.74-0.62L770.51,428.01z"/>
			</g>
			<g>
				<path class="st21" d="M770.7,440.88v1.24c-2.49-0.54-4.9-1.27-7.28-2.16l0.03-1.3C765.8,439.61,768.24,440.34,770.7,440.88z"/>
			</g>
			<g>
				<path class="st21" d="M770.78,447.21c-2.52-0.35-5.03-0.81-7.49-1.38l0.03-1.24c2.46,0.57,4.92,1.03,7.44,1.38L770.78,447.21z"
					/>
			</g>
			<g>
				<path class="st21" d="M770.94,458.06c-2.65,0-5.3-0.16-7.95-0.46v-0.03l0.03-1.22c2.62,0.32,5.28,0.49,7.9,0.49L770.94,458.06z"
					/>
			</g>
			<g>
				<path class="st21" d="M771.08,467.01c-2.79,0.51-5.57,1-8.39,1.41l0.03-1.22c2.79-0.41,5.57-0.89,8.33-1.43L771.08,467.01z"/>
			</g>
			<g>
				<path class="st21" d="M771.21,475.05c-2.71,1.43-5.68,2.22-8.74,2.3l0.03-1.22c3.06-0.08,6.03-0.89,8.68-2.41L771.21,475.05z"/>
			</g>
			<g>
				<path class="st21" d="M771.4,487.66c-3.03,0.68-6.09,1.03-9.22,1l0.03-1.22c3.08,0,6.14-0.32,9.17-1.03L771.4,487.66z"/>
			</g>
			<g>
				<path class="st21" d="M771.54,497.75c-3.25-0.14-6.44-0.65-9.55-1.54l0.03-1.24c3.11,0.89,6.28,1.43,9.5,1.6L771.54,497.75z"/>
			</g>
			<g>
				<path class="st21" d="M771.65,504.81c-3.27-0.03-6.57-0.19-9.85-0.57l0.03-1.16c3.27,0.32,6.52,0.54,9.79,0.54L771.65,504.81z"
					/>
			</g>
		</g>
		<g>
			<path class="st23" d="M781.34,415.38c-1.57-0.03-3.11-0.14-4.68-0.3l0.38-8.09h4.06L781.34,415.38z"/>
			<path class="st23" d="M781.44,419.92c-1.68,0.03-3.33,0-5-0.05l0.16-3.57c1.6,0.16,3.16,0.27,4.76,0.3L781.44,419.92z"/>
			<path class="st23" d="M781.74,430.47c-1.92,0.35-3.84,0.57-5.82,0.68l0.46-10.06c1.7,0.05,3.38,0.08,5.09,0.05L781.74,430.47z"/>
			<path class="st23" d="M782.07,442.38c-2.14,1.16-4.38,1.87-6.76,2.14l0.57-12.15c2-0.08,3.95-0.3,5.9-0.68L782.07,442.38z"/>
			<path class="st23" d="M775.06,450.06l0.19-4.33c2.41-0.24,4.71-0.89,6.87-1.97l0.16,6.3
				C779.87,450.25,777.49,450.25,775.06,450.06z"/>
			<path class="st23" d="M782.58,461.34c-2.76-0.81-5.38-2-7.87-3.6l0.3-6.47c2.46,0.19,4.87,0.19,7.3-0.03L782.58,461.34z"/>
			<path class="st23" d="M782.77,467.83c-2.84-0.11-5.68-0.35-8.49-0.68l0.35-8.01c2.52,1.54,5.19,2.71,8.01,3.46L782.77,467.83z"/>
			<path class="st23" d="M783.01,476.7c-3,1.14-6.09,1.87-9.28,2.22l0.49-10.55c2.84,0.32,5.71,0.57,8.58,0.68L783.01,476.7z"/>
			<path class="st23" d="M783.26,485.2c-3.22,1.05-6.52,1.79-9.93,2.19l0.35-7.25c3.19-0.35,6.3-1.05,9.36-2.14L783.26,485.2z"/>
			<path class="st23" d="M783.47,493.42c-3.46-0.27-6.93-0.51-10.39-0.78l0.19-4.03c3.44-0.41,6.76-1.14,10.01-2.16L783.47,493.42z"
				/>
			<path class="st23" d="M784.07,514.74h-11.98l0.95-20.88c3.49,0.27,6.98,0.51,10.47,0.78L784.07,514.74z"/>
			<g>
				<g>
					<path class="st22" d="M757.95,404.27c0,0,0.72,0.29,1.97,0.67c1.25,0.38,3.01,0.84,5.06,1.27c2.05,0.44,4.36,0.84,6.79,1.2
						c2.47,0.36,5.08,0.73,7.82,1.13c0.04,0.02,0.07,0.02,0.06,0.01c0.02,0,0-0.02-0.04-0.05c-1.73-2.33-4.37-3.92-6.98-4.73
						c-2.63-0.83-5.22-0.98-7.4-0.87c-2.19,0.11-4.01,0.48-5.28,0.79C758.68,404,757.95,404.27,757.95,404.27z"/>
				</g>
				<g>
					<path class="st22" d="M799.62,372.12c0,0-1.02,0.94-2.64,2.69c-1.62,1.75-3.83,4.33-6.12,7.63
						c-4.62,6.54-9.53,16.11-11.08,26.23c-0.03,0.08-0.04,0.13-0.02,0.1c-0.01,0.04,0.02-0.01,0.06-0.09
						c5.64-8.48,10.29-17.51,13.88-24.54c1.76-3.53,3.25-6.52,4.31-8.63C799.05,373.39,799.62,372.12,799.62,372.12z"/>
				</g>
				<g>
					<path class="st22" d="M800.44,401.25c0,0-12.41-1.05-21.46,6.1c-0.04,0.02-0.07,0.03-0.05,0.04c-0.02,0.01,0.01,0.01,0.06,0.01
						C790.46,408.69,800.44,401.25,800.44,401.25z"/>
				</g>
				<g>
					<path class="st22" d="M801.02,389.23c0,0-3.59,1.62-8.18,4.81c-2.29,1.6-4.84,3.59-7.28,5.95c-2.38,2.35-4.94,5.41-5.82,9.03
						c-0.03,0.06-0.04,0.09-0.02,0.07c-0.01,0.02,0.02,0,0.06-0.05c2.73-2.39,5.58-4.14,8.26-6.25c2.7-2.04,5.03-4.22,6.95-6.22
						C798.83,392.56,801.02,389.23,801.02,389.23z"/>
				</g>
				<g>
					<path class="st22" d="M755.41,373.23c0,0,1.98,5.67,6.07,13.28c4.07,7.61,8.55,15.42,16.63,22.93
						c-1.78-1.72-0.46-0.36-0.23,0.07c0,1.11,3.31,0.16,3.26,0.08c-4.48-10.05-11.85-17.84-16.84-24.83
						C759.3,377.78,755.41,373.23,755.41,373.23z"/>
				</g>
				<g>
					<path class="st24" d="M773.94,359.18c0,0-0.06,0.41-0.18,1.18c-0.11,0.77-0.3,1.91-0.39,3.35c-0.25,2.89-0.3,7.05,0.18,11.9
						c0.46,4.86,1.42,10.38,2.61,16.1c1.19,5.73,2.52,11.66,3.61,17.72c0.01,0.11,0.02,0.17,0.02,0.13
						c0.01,0.04,0.01-0.02,0.02-0.12c1.11-6.07,0.84-12.48,0.03-18.34c-0.8-5.89-2.03-11.3-3.02-15.98
						c-1.02-4.67-1.78-8.63-2.22-11.45C774.18,360.83,773.94,359.18,773.94,359.18z"/>
				</g>
				<g>
					<path class="st24" d="M803.96,393.03c0,0-3.6,1.49-8.51,4.1c-4.91,2.61-11.14,6.31-16.46,10.92c-0.05,0.03-0.08,0.05-0.06,0.05
						c-0.02,0.02,0.01,0,0.07-0.02c6.84-2.21,13.15-5.97,17.66-9.18C801.19,395.68,803.96,393.03,803.96,393.03z"/>
				</g>
				<g>
					<path class="st24" d="M761.2,368.9c0,0,1.33,5.58,4.22,13.27c1.45,3.85,3.29,8.22,5.55,12.7c1.11,2.23,2.41,4.51,3.67,6.71
						c1.23,2.21,2.41,4.43,2.88,7.02c0.01,0.09,0.01,0.14,0.02,0.11c0.01,0.04,0.02-0.01,0.02-0.11c0.65-2.59,0.19-5.46-0.56-8.01
						c-0.77-2.57-1.69-4.93-2.62-7.27c-1.89-4.64-3.99-8.91-5.94-12.52C764.54,373.56,761.2,368.9,761.2,368.9z"/>
				</g>
				<g>
					<path class="st24" d="M751.13,393.99c0,0,3.21,2.59,8.15,5.6c4.96,3.01,11.59,6.48,18.98,8.26c0.06,0.03,0.09,0.04,0.08,0.02
						c0.03,0.01,0-0.02-0.05-0.06c-5.19-5.58-12.07-9.17-17.56-11.21C755.22,394.55,751.13,393.99,751.13,393.99z"/>
				</g>
				<g>
					<path class="st24" d="M751.63,385.09c0,0,0.79,0.86,2.23,2.25c1.44,1.39,3.52,3.29,6.02,5.43c5.04,4.34,11.54,9.44,18.25,14.74
						c0.05,0.05,0.08,0.08,0.07,0.05c0.02,0.02,0-0.02-0.04-0.08c-1.64-4-4.32-7.6-7.29-10.49c-2.96-2.91-6.18-5.17-9.06-6.91
						c-2.88-1.74-5.44-2.96-7.27-3.77C752.73,385.49,751.63,385.09,751.63,385.09z"/>
				</g>
				<g>
					<path class="st24" d="M775.81,370.13c0,0-0.29,1.26-0.62,3.45c-0.33,2.19-0.67,5.32-0.73,9.05c-0.15,7.43,0.99,17.3,5.03,25.94
						c0.02,0.08,0.04,0.12,0.04,0.09c0.01,0.03,0.01-0.02,0-0.1c0.29-9.48-0.79-18.86-1.76-26.13c-0.49-3.62-0.97-6.7-1.34-8.87
						C776.07,371.4,775.81,370.13,775.81,370.13z"/>
				</g>
				<g>
					<path class="st24" d="M770.23,396.73c0,0-0.16,0.57,0.03,1.56c0.17,1,0.76,2.31,1.5,3.6c0.76,1.31,1.77,2.72,3.12,4
						c0.67,0.64,1.43,1.24,2.27,1.78c0.85,0.58,1.7,0.78,2.35,1.63c0.01,0.03,0.03,0.09,0.04,0.07c0.2,0.11,1.19-0.38,0.79-0.2
						c0.65-1.26-0.85-2.23-1.19-3.07c-0.38-0.91-0.84-1.74-1.36-2.5c-1.03-1.52-2.26-2.76-3.45-3.74c-1.21-1-2.28-1.61-2.98-2.16
						C770.62,397.17,770.23,396.73,770.23,396.73z"/>
				</g>
				<g>
					<path class="st24" d="M800.43,379.72c0,0-3.54,3.25-7.98,8.43c-4.45,5.19-9.78,11.87-13.49,19.9c-0.04,0.06,0.16,0.2,0.18,0.18
						c-0.01,0.03,0.07,0.05,0.12-0.01c7.13-5.27,12.31-12.26,15.88-18.13C798.71,384.22,800.43,379.72,800.43,379.72z"/>
				</g>
				<g>
					<path class="st24" d="M792.07,411.47c0,0-1.54-1.42-3.85-2.63c-2.33-1.22-5.36-2.23-9.23-1.53c-0.03-0.01-0.05-0.01-0.04,0.01
						c-0.01,0,0,0.02,0.02,0.03c2.15,3.35,5.65,4.52,8.37,4.69C790.08,412.22,792.07,411.47,792.07,411.47z"/>
				</g>
				<g>
					<path class="st24" d="M767.25,413.63c0,0,2.09-0.2,4.53-1.11c2.46-0.92,5.25-2.5,7.31-5.85c0.02-0.02,0.04-0.03,0.02-0.03
						c0.01-0.01-0.01-0.01-0.04-0.01c-3.93-0.63-7.14,1.18-9.08,3.1C768.02,411.65,767.25,413.63,767.25,413.63z"/>
				</g>
				<g>
					<path class="st24" d="M780.04,406.8c0,0,0.49-1.3,1.33-3.54c0.8-2.23,1.94-5.39,3.28-9.13c2.63-7.49,6.06-17.09,8.56-27.02
						c0.03-0.08,0.05-0.13,0.03-0.1c0.01-0.04-0.02,0.01-0.06,0.08c-6.47,8.03-10.14,18.25-11.72,26.15
						c-0.81,3.96-1.15,7.36-1.3,9.76C780,405.41,780.04,406.8,780.04,406.8z"/>
				</g>
				<g>
					<path class="st24" d="M779.49,402.01c0,0,1.57-4.5,3.02-11.11c1.45-6.62,2.83-15.3,2.31-24.06c0.01-0.08,0.01-0.12,0-0.09
						c0-0.03-0.02,0.01-0.04,0.08c-3.8,7.93-5.21,16.83-5.56,23.63C778.86,397.28,779.49,402.01,779.49,402.01z"/>
				</g>
			</g>
			<g>
				<path class="st25" d="M781.36,416.59c-1.6-0.03-3.17-0.14-4.76-0.3l0.05-1.22c1.57,0.16,3.11,0.27,4.68,0.3L781.36,416.59z"/>
			</g>
			<g>
				<path class="st25" d="M781.47,421.14c-1.7,0.03-3.38,0-5.09-0.05l0.05-1.22c1.68,0.05,3.33,0.08,5,0.05L781.47,421.14z"/>
			</g>
			<g>
				<path class="st25" d="M781.77,431.69c-1.95,0.38-3.9,0.6-5.9,0.68l0.05-1.22c1.97-0.11,3.9-0.32,5.82-0.68L781.77,431.69z"/>
			</g>
			<g>
				<path class="st25" d="M782.12,443.73v0.03c-2.16,1.08-4.46,1.73-6.87,1.97l0.05-1.22c2.38-0.27,4.63-0.97,6.76-2.14
					L782.12,443.73z"/>
			</g>
			<g>
				<path class="st25" d="M782.31,451.25c-2.43,0.22-4.84,0.22-7.3,0.03l0.05-1.22c2.43,0.19,4.82,0.19,7.22,0L782.31,451.25z"/>
			</g>
			<g>
				<path class="st25" d="M782.63,462.61c-2.81-0.76-5.49-1.92-8.01-3.46v-0.03l0.08-1.38c2.49,1.6,5.11,2.79,7.87,3.6
					L782.63,462.61z"/>
			</g>
			<g>
				<path class="st25" d="M782.8,469.05c-2.87-0.11-5.74-0.35-8.58-0.68l0.05-1.22c2.81,0.32,5.65,0.57,8.49,0.68L782.8,469.05z"/>
			</g>
			<g>
				<path class="st25" d="M783.04,478c-3.06,1.08-6.17,1.79-9.36,2.14l0.05-1.22c3.19-0.35,6.28-1.08,9.28-2.22L783.04,478z"/>
			</g>
			<g>
				<path class="st25" d="M783.28,486.44c-3.25,1.03-6.57,1.76-10.01,2.16l0.05-1.22c3.41-0.41,6.71-1.14,9.93-2.19L783.28,486.44z"
					/>
			</g>
			<g>
				<path class="st25" d="M783.5,494.64c-3.49-0.27-6.98-0.51-10.47-0.78l0.05-1.22c3.46,0.27,6.93,0.51,10.39,0.78L783.5,494.64z"
					/>
			</g>
		</g>
		<g>
			<g>
				<path class="st23" d="M790.35,457.34c1.33-0.02,2.64-0.1,3.97-0.22l-0.32-6.01h-3.44L790.35,457.34z"/>
				<path class="st23" d="M790.25,460.72c1.42,0.02,2.82,0,4.25-0.04l-0.14-2.65c-1.35,0.12-2.69,0.2-4.04,0.22L790.25,460.72z"/>
				<path class="st23" d="M790,468.56c1.63,0.26,3.26,0.42,4.94,0.5l-0.39-7.48c-1.45,0.04-2.87,0.06-4.32,0.04L790,468.56z"/>
				<path class="st23" d="M789.73,477.4c1.81,0.86,3.72,1.39,5.74,1.59l-0.48-9.02c-1.7-0.06-3.35-0.22-5-0.5L789.73,477.4z"/>
				<path class="st23" d="M795.67,483.11l-0.16-3.22c-2.04-0.18-3.99-0.66-5.83-1.47l-0.14,4.68
					C791.59,483.25,793.61,483.25,795.67,483.11z"/>
				<path class="st23" d="M789.29,491.49c2.34-0.6,4.57-1.49,6.68-2.67l-0.25-4.8c-2.09,0.14-4.13,0.14-6.2-0.02L789.29,491.49z"/>
				<path class="st23" d="M789.13,496.31c2.41-0.08,4.82-0.26,7.21-0.5l-0.3-5.95c-2.14,1.15-4.41,2.01-6.8,2.57L789.13,496.31z"/>
				<path class="st23" d="M788.92,502.91c2.55,0.84,5.17,1.39,7.87,1.65l-0.41-7.84c-2.41,0.24-4.84,0.42-7.28,0.5L788.92,502.91z"
					/>
				<path class="st23" d="M788.72,509.22c2.73,0.78,5.53,1.33,8.43,1.63l-0.3-5.39c-2.71-0.26-5.35-0.78-7.94-1.59L788.72,509.22z"
					/>
				<path class="st23" d="M788.53,515.33c2.94-0.2,5.88-0.38,8.82-0.58l-0.16-2.99c-2.92-0.3-5.74-0.84-8.49-1.61L788.53,515.33z"/>
				<path class="st23" d="M788.03,531.16h10.17l-0.8-15.52c-2.96,0.2-5.92,0.38-8.88,0.58L788.03,531.16z"/>
				<g>
					<path class="st25" d="M790.32,458.25c1.35-0.02,2.69-0.1,4.04-0.22l-0.05-0.9c-1.33,0.12-2.64,0.2-3.97,0.22L790.32,458.25z"/>
				</g>
				<g>
					<path class="st25" d="M790.23,461.62c1.45,0.02,2.87,0,4.32-0.04l-0.05-0.9c-1.42,0.04-2.82,0.06-4.25,0.04L790.23,461.62z"/>
				</g>
				<g>
					<path class="st25" d="M789.98,469.46c1.65,0.28,3.31,0.44,5,0.5l-0.05-0.9c-1.68-0.08-3.31-0.24-4.94-0.5L789.98,469.46z"/>
				</g>
				<g>
					<path class="st25" d="M789.68,478.41v0.02c1.84,0.8,3.79,1.29,5.83,1.47l-0.05-0.9c-2.02-0.2-3.93-0.72-5.74-1.59
						L789.68,478.41z"/>
				</g>
				<g>
					<path class="st25" d="M789.52,483.99c2.07,0.16,4.11,0.16,6.2,0.02l-0.05-0.9c-2.07,0.14-4.09,0.14-6.13,0L789.52,483.99z"/>
				</g>
				<g>
					<path class="st25" d="M789.24,492.43c2.39-0.56,4.66-1.43,6.8-2.57v-0.02l-0.07-1.03c-2.11,1.19-4.34,2.07-6.68,2.67
						L789.24,492.43z"/>
				</g>
				<g>
					<path class="st25" d="M789.11,497.22c2.43-0.08,4.87-0.26,7.28-0.5l-0.05-0.9c-2.39,0.24-4.8,0.42-7.21,0.5L789.11,497.22z"/>
				</g>
				<g>
					<path class="st25" d="M788.9,503.87c2.59,0.8,5.23,1.33,7.94,1.59l-0.05-0.9c-2.71-0.26-5.33-0.8-7.87-1.65L788.9,503.87z"/>
				</g>
				<g>
					<path class="st25" d="M788.69,510.14c2.75,0.76,5.58,1.31,8.49,1.61l-0.05-0.9c-2.89-0.3-5.69-0.84-8.43-1.63L788.69,510.14z"
						/>
				</g>
				<g>
					<path class="st25" d="M788.51,516.23c2.96-0.2,5.92-0.38,8.88-0.58l-0.05-0.9c-2.94,0.2-5.88,0.38-8.82,0.58L788.51,516.23z"/>
				</g>
			</g>
			<g>
				<g>
					<path class="st22" d="M809.82,448.18c0,0-0.6,0.26-1.62,0.59c-1.03,0.34-2.48,0.75-4.17,1.13c-1.69,0.39-3.59,0.75-5.59,1.07
						c-2.04,0.32-4.19,0.65-6.45,1c-0.04,0.02-0.06,0.02-0.05,0.01c-0.02,0,0-0.01,0.03-0.04c1.42-2.07,3.6-3.49,5.75-4.21
						c2.16-0.74,4.3-0.87,6.1-0.77c1.81,0.1,3.3,0.43,4.35,0.71C809.22,447.94,809.82,448.18,809.82,448.18z"/>
				</g>
				<g>
					<path class="st22" d="M775.49,419.6c0,0,0.84,0.84,2.17,2.4c1.33,1.56,3.15,3.85,5.05,6.78c3.8,5.82,7.85,14.32,9.13,23.32
						c0.02,0.07,0.03,0.12,0.01,0.09c0,0.03-0.02-0.01-0.05-0.08c-4.64-7.54-8.47-15.57-11.44-21.82c-1.45-3.14-2.68-5.8-3.55-7.68
						C775.96,420.72,775.49,419.6,775.49,419.6z"/>
				</g>
				<g>
					<path class="st22" d="M775.06,444.69c0,0,10.26,0.01,17.19,7.03c0.03,0.02,0.05,0.03,0.04,0.04c0.01,0.01-0.01,0.01-0.05,0
						C782.73,452.04,775.06,444.69,775.06,444.69z"/>
				</g>
				<g>
					<path class="st22" d="M789.17,408.75c0,0,0.17,1.43,0.47,3.88c0.31,2.44,0.88,5.87,1.5,9.97c0.6,4.1,1.25,8.93,1.08,14.13
						c-0.09,2.58-0.36,5.2-0.74,7.81c-0.19,1.3-0.4,2.61-0.63,3.91l-0.34,1.94c-0.08,0.61-0.13,1.27,0.29,1.79
						c0.07,0.06,0.11,0.1,0.07,0.08c0.02,0.03-0.02,0-0.1-0.05c-0.61-0.35-0.84-1.14-0.94-1.8c-0.1-0.69-0.15-1.33-0.21-2
						c-0.11-1.32-0.19-2.65-0.25-3.96c-0.08-2.61-0.16-5.19-0.24-7.7c-0.17-4.96-0.57-9.69-0.72-13.87
						c-0.17-4.17-0.06-7.73,0.2-10.21C788.86,410.15,789.17,408.75,789.17,408.75z"/>
				</g>
				<g>
					<path class="st22" d="M774.34,434.81c0,0,2.96,1.44,6.74,4.28c1.89,1.42,3.98,3.19,6,5.29c1.96,2.09,4.07,4.81,4.79,8.02
						c0.02,0.05,0.03,0.08,0.02,0.06c0.01,0.02-0.01,0-0.05-0.04c-2.25-2.13-4.6-3.69-6.81-5.56c-2.22-1.81-4.15-3.75-5.73-5.53
						C776.14,437.77,774.34,434.81,774.34,434.81z"/>
				</g>
				<g>
					<path class="st22" d="M811.91,420.58c0,0-1.63,5.04-5,11.8c-3.36,6.76-7.05,13.71-13.7,20.38c1.47-1.53,0.38-0.32,0.19,0.06
						c0,0.99-2.55,0.22-2.51,0.15c3.69-8.93,9.58-15.94,13.7-22.15C808.7,424.63,811.91,420.58,811.91,420.58z"/>
				</g>
				<g>
					<path class="st24" d="M796.65,408.09c0,0,0.05,0.37,0.15,1.05c0.09,0.69,0.25,1.7,0.32,2.98c0.21,2.57,0.25,6.27-0.15,10.58
						c-0.38,4.32-1.17,9.23-2.15,14.32c-0.98,5.1-2.08,10.37-2.98,15.75c-0.01,0.1-0.01,0.15-0.02,0.11
						c-0.01,0.04-0.01-0.02-0.02-0.11c-0.92-5.4-0.69-11.1-0.03-16.31c0.66-5.23,1.67-10.05,2.49-14.21
						c0.84-4.15,1.47-7.67,1.83-10.18C796.44,409.56,796.65,408.09,796.65,408.09z"/>
				</g>
				<g>
					<path class="st24" d="M769.37,435.7c0,0,3.32,1.59,7.86,4.34c4.54,2.76,10.3,6.67,15.25,11.49c0.05,0.04,0.07,0.06,0.05,0.05
						c0.02,0.02-0.01,0-0.06-0.03c-6.31-2.39-12.14-6.34-16.32-9.71C771.94,438.47,769.37,435.7,769.37,435.7z"/>
				</g>
				<g>
					<path class="st24" d="M807.14,416.74c0,0-1.09,4.96-3.48,11.8c-1.19,3.42-2.71,7.31-4.57,11.29c-0.92,1.98-1.98,4.01-3.02,5.96
						c-1.02,1.96-1.99,3.94-2.38,6.24c0,0.08-0.01,0.13-0.02,0.1c-0.01,0.03-0.01-0.01-0.02-0.09c-0.54-2.3-0.16-4.86,0.46-7.12
						c0.63-2.28,1.39-4.38,2.16-6.46c1.56-4.13,3.28-7.92,4.89-11.13C804.39,420.88,807.14,416.74,807.14,416.74z"/>
				</g>
				<g>
					<path class="st24" d="M815.44,439.04c0,0-2.64,2.3-6.71,4.98c-4.08,2.68-9.55,5.76-15.64,7.34c-0.05,0.02-0.08,0.03-0.06,0.02
						c-0.02,0.01,0-0.02,0.04-0.05c4.28-4.96,9.95-8.16,14.46-9.96C812.07,439.54,815.44,439.04,815.44,439.04z"/>
				</g>
				<g>
					<path class="st24" d="M806.82,454.17c0,0-1.99,0.3-4.57,0.15c-2.61-0.16-5.77-0.72-8.94-2.84c-0.03-0.01-0.04-0.02-0.03-0.02
						c-0.01-0.01,0.01-0.01,0.03-0.02c3.41-1.78,7.08-1.15,9.57,0.01C805.4,452.6,806.82,454.17,806.82,454.17z"/>
				</g>
				<g>
					<path class="st24" d="M815.02,431.13c0,0-0.65,0.77-1.84,2c-1.18,1.23-2.9,2.92-4.96,4.83c-4.16,3.86-9.51,8.39-15.04,13.1
						c-0.04,0.05-0.07,0.07-0.06,0.05c-0.02,0.02,0-0.02,0.03-0.07c1.35-3.55,3.56-6.75,6.01-9.33c2.44-2.59,5.09-4.6,7.46-6.14
						c2.37-1.54,4.48-2.63,5.99-3.35C814.12,431.49,815.02,431.13,815.02,431.13z"/>
				</g>
				<g>
					<path class="st24" d="M799.54,418.98c0,0,0.05,1.14-0.01,3.11c-0.06,1.97-0.24,4.76-0.75,8.03
						c-0.99,6.53-3.38,15.03-7.95,22.05c-0.03,0.07-0.05,0.1-0.05,0.07c-0.02,0.02-0.01-0.02,0.01-0.09
						c1.18-8.35,3.45-16.42,5.32-22.66c0.94-3.11,1.79-5.73,2.41-7.59C799.15,420.05,799.54,418.98,799.54,418.98z"/>
				</g>
				<g>
					<path class="st24" d="M799.28,440.63c0,0,0.17,0.51,0.08,1.45c-0.07,0.94-0.47,2.19-0.99,3.43c-0.53,1.27-1.27,2.65-2.29,3.93
						c-0.51,0.64-1.09,1.25-1.75,1.81c-0.66,0.6-1.34,0.85-1.83,1.69c-0.01,0.03-0.02,0.08-0.03,0.07
						c-0.16,0.11-0.31,0.04-0.31,0.01c-0.48-0.94,0.2-2.26,0.43-3.06c0.25-0.86,0.58-1.67,0.95-2.41c0.74-1.48,1.67-2.72,2.58-3.71
						c0.93-1.01,1.77-1.66,2.31-2.22C798.99,441.07,799.28,440.63,799.28,440.63z"/>
				</g>
				<g>
					<path class="st24" d="M774.82,426.35c0,0,2.92,2.89,6.58,7.49c3.66,4.61,8.06,10.55,11.12,17.69c0.04,0.06-0.13,0.18-0.15,0.16
						c0.01,0.03-0.05,0.04-0.1-0.01c-5.88-4.69-10.14-10.9-13.08-16.12C776.24,430.35,774.82,426.35,774.82,426.35z"/>
				</g>
				<g>
					<path class="st24" d="M768.52,445.25c0,0,0.83,0.21,2.25,0.57c1.42,0.33,3.4,0.74,5.75,1.13c4.66,0.8,11.03,1.65,16.79,4.68
						c0.05,0.01,0.08,0.03,0.06,0.03c0.02,0.01-0.01,0.01-0.07,0.01c-6.31,0.83-12.67-0.02-17.46-1.86
						c-2.37-0.9-4.25-2.06-5.48-2.97C769.14,445.91,768.52,445.25,768.52,445.25z"/>
				</g>
				<g>
					<path class="st24" d="M774.86,452.9c0,0,2.34-0.84,5.64-1.37c3.32-0.52,7.56-0.76,11.94,0.63c0.04,0,0.06,0,0.05,0.01
						c0.02,0.01,0,0.01-0.04,0.02c-3.98,2.5-8.54,2.75-11.92,2.28C777.11,454.02,774.86,452.9,774.86,452.9z"/>
				</g>
				<g>
					<path class="st24" d="M799.87,459.4c0,0-0.38-0.18-0.93-0.55c-0.56-0.36-1.29-0.91-2.04-1.55c-0.75-0.64-1.48-1.34-2.2-2.13
						c-0.74-0.79-1.39-1.72-2.52-2.85c-0.02-0.01-0.03-0.02-0.02-0.02c-0.01-0.01,0-0.01,0.03-0.02c1.38-0.85,3.12-0.56,4.34,0.21
						c1.26,0.77,2.07,1.96,2.53,3.01c0.47,1.07,0.65,2.05,0.73,2.75C799.88,458.96,799.87,459.4,799.87,459.4z"/>
				</g>
				<g>
					<path class="st24" d="M783.45,458.39c0,0,0.92-1.58,2.49-3.15c1.59-1.59,3.78-3.17,7.01-3.47c0.02-0.01,0.04-0.02,0.03,0
						c0.01,0,0,0.01-0.01,0.03c-0.99,3.37-3.52,5.2-5.64,5.97C785.19,458.57,783.45,458.39,783.45,458.39z"/>
				</g>
				<path class="st24" d="M793.89,453.45c-0.2,0-1.67,0.39-2.51-0.11c-0.84-0.51,1.82-2.28,1.89-2.21c0.07,0.08,1.17,1.01,1.17,1.01
					L793.89,453.45z"/>
				<g>
					<path class="st24" d="M791.62,450.43c0,0-0.4-1.16-1.1-3.14c-0.66-1.99-1.6-4.79-2.7-8.12c-2.16-6.66-5-15.19-7.05-24.02
						c-0.03-0.07-0.04-0.12-0.02-0.09c-0.01-0.03,0.02,0.01,0.05,0.07c5.33,7.13,8.36,16.22,9.66,23.25
						c0.67,3.52,0.95,6.55,1.07,8.68C791.65,449.19,791.62,450.43,791.62,450.43z"/>
				</g>
			</g>
		</g>
		<g>
			<path class="st26" d="M797.34,511.9h-39.88c0,0-0.93,24.01,9.97,45.99h19.94C798.27,535.9,797.34,511.9,797.34,511.9z"/>
			<path class="st27" d="M783.88,557.87h-12.09c-10.92-21.97-9.97-45.99-9.97-45.99h10.62c-0.57,5.79-1.87,25.73,5.33,45.23
				L783.88,557.87z"/>
			<path class="st26" d="M801.73,513.8c-0.05,6.11-0.92,25.81-9.99,44.07h-7.85l-6.11-0.76c-7.2-19.5-5.91-39.44-5.33-45.23h29.26
				C801.7,511.88,801.73,512.56,801.73,513.8z"/>
		</g>
	</g>
	<g>
		<g>
			<path class="st28" d="M455.84,542.8v-8.52h-2.04v6.31c-0.86-0.53-1.86-0.85-2.94-0.85c-3.11,0-5.63,2.52-5.63,5.63
				s2.52,5.63,5.63,5.63c3.11,0,5.63-2.52,5.63-5.63C456.5,544.44,456.25,543.57,455.84,542.8z"/>
			<g>
				<path class="st28" d="M486.9,538.85v-8.52h-2.04v6.31c-0.86-0.53-1.86-0.85-2.94-0.85c-3.11,0-5.63,2.52-5.63,5.63
					s2.52,5.63,5.63,5.63s5.63-2.52,5.63-5.63C487.56,540.5,487.31,539.63,486.9,538.85z"/>
				<path class="st29" d="M484.36,526.03l34.47-15.34c0,0,2.24,4.56,0.33,7.12c-1.91,2.56-33.37,11.95-33.37,11.95L484.36,526.03z"
					/>
				<polygon class="st29" points="483.86,526.69 483.86,534.12 487.86,534.12 487.86,529.53 				"/>
				<path class="st28" d="M563.96,538.85v-8.52H566v6.31c0.86-0.53,1.86-0.85,2.94-0.85c3.11,0,5.63,2.52,5.63,5.63
					s-2.52,5.63-5.63,5.63s-5.63-2.52-5.63-5.63C563.3,540.5,563.55,539.63,563.96,538.85z"/>
				<path class="st29" d="M567,526.71l-32.64-14.71c0,0-2.22,4.56-0.45,7.08c1.78,2.52,31.66,11.36,31.66,11.36L567,526.71z"/>
				<polygon class="st29" points="567,526.69 567,534.12 563,534.12 563,529.53 				"/>
				<path class="st30" d="M517.69,519.8v-23.36h17.43v23.36C535.12,519.8,529.63,522.64,517.69,519.8z"/>
				<rect x="525.43" y="542.64" class="st28" width="2.39" height="5.8"/>
				<rect x="522.3" y="546.14" class="st28" width="8.21" height="11.96"/>
				<ellipse class="st31" cx="526.41" cy="496.43" rx="8.72" ry="1.28"/>
				<path class="st32" d="M452.17,530.45c0,0,2.61,3.26,5.55,3.26l60.53-16.97c0,0,2.12-8.79,0-9.94L452.17,530.45z"/>
				<path class="st32" d="M526.63,508.11c-4.13-0.16-4.13,3.75-4.13,3.75l1.96,31.66h2.18h2.18l1.96-31.66
					C530.76,511.86,530.76,507.97,526.63,508.11z"/>
				<polygon class="st32" points="452.17,530.45 452.17,537.13 457.48,538.11 457.72,533.71 				"/>
				<path class="st32" d="M600.82,530.45c0,0-2.61,3.26-5.55,3.26l-60.53-16.97c0,0-2.12-8.79,0-9.94L600.82,530.45z"/>
				<polygon class="st32" points="600.82,530.45 600.82,537.13 595.52,538.11 595.27,533.71 				"/>
				<path class="st28" d="M597.15,542.8v-8.52h2.04v6.31c0.86-0.53,1.86-0.85,2.94-0.85c3.11,0,5.63,2.52,5.63,5.63
					s-2.52,5.63-5.63,5.63s-5.63-2.52-5.63-5.63C596.5,544.44,596.75,543.57,597.15,542.8z"/>
				<path class="st33" d="M520.7,496.35v-18.68h11.42v18.68C532.12,496.35,528.04,497.7,520.7,496.35z"/>
				<path class="st34" d="M532.12,477.66c0,0.86-2.56,1.55-5.71,1.55c-3.15,0-5.71-0.69-5.71-1.55c0-0.86,2.56-1.55,5.71-1.55
					C529.56,476.11,532.12,476.81,532.12,477.66z"/>
				<path class="st32" d="M523.36,466.49c-0.11,0.44,0,10.88,0,10.88s3.1,1.96,6.31,0v-10.88H523.36z"/>
				<g>
					<path class="st30" d="M474.4,469.71l-0.56-1.71l0.28,0.85l-0.62-0.65c0.29-0.33,1.89-2.98,3.26-5.35l0.19-0.33l19.87-4.9
						l0.43,1.74l-19.13,4.72C474.96,469.52,474.77,469.58,474.4,469.71z"/>
				</g>
				<path class="st30" d="M522.49,456.37v11.42c0,0,3.92,1.47,8.27,0v-11.42H522.49z"/>
				<path class="st35" d="M473.38,466.49c0,0-8.97,11.42-9.14,13.71c-0.16,2.28,10.36,4.98,13.3,2.77c2.94-2.2,3.02-7.59,1.31-8.48
					c-1.71-0.9-3.26-3.59-1.71-5.63C478.69,466.81,473.38,466.49,473.38,466.49z"/>
			</g>
		</g>
		<g>
			<polygon class="st36" points="516.39,466.11 607.77,456.56 559.69,443.12 554.91,432.97 472.49,443.12 			"/>
			<path class="st36" d="M554.91,432.97c0,0-7.02-108.46-14.78-110.25s8.45,127.32,8.45,127.32l59.19,6.52
				c0,0,11.35-18.81-3.58-22.4C589.25,430.58,554.91,432.97,554.91,432.97z"/>
			<polygon class="st36" points="460.39,324.21 540.13,322.71 554.91,432.97 472.49,443.12 			"/>
			<path class="st37" d="M472.49,443.12c0,0-4.33-117.12-12.09-118.91c-7.76-1.79,9.11,132.05,9.11,132.05l46.88,9.85
				c0,0,5.38-17.92-9.56-21.5C491.9,441.03,472.49,443.12,472.49,443.12z"/>
		</g>
	</g>
	<g>
		<g>
			<path class="st15" d="M646.21,348.39c-0.95-1.2-2.37-1.88-3.9-1.88h-61.4c-2.32,0-4.31,1.58-4.84,3.83l-9.84,41.8
				c-0.35,1.49-0.01,3.03,0.94,4.22c0.95,1.2,2.37,1.88,3.9,1.88h61.4c2.32,0,4.31-1.58,4.84-3.83l9.84-41.8
				C647.51,351.13,647.16,349.59,646.21,348.39z"/>
			<path class="st26" d="M649.02,348.39c-0.95-1.2-2.37-1.88-3.9-1.88h-61.4c-2.32,0-4.31,1.58-4.84,3.83l-9.84,41.8
				c-0.35,1.49-0.01,3.03,0.94,4.22c0.95,1.2,2.37,1.88,3.9,1.88h61.4c2.32,0,4.31-1.58,4.84-3.83l9.84-41.8
				C650.31,351.13,649.97,349.59,649.02,348.39z"/>
			<g>
				<path class="st26" d="M636.95,400.68h-80.37c-0.81,0-1.46-0.65-1.46-1.46v-0.97c0-0.81,0.65-1.46,1.46-1.46h80.37
					c0.81,0,1.46,0.65,1.46,1.46v0.97C638.41,400.03,637.75,400.68,636.95,400.68z"/>
				<path class="st15" d="M567.91,400.68h-31.93c-0.81,0-1.46-0.65-1.46-1.46v-0.97c0-0.81,0.65-1.46,1.46-1.46h31.93
					c0.81,0,1.46,0.65,1.46,1.46v0.97C569.36,400.03,568.71,400.68,567.91,400.68z"/>
			</g>
		</g>
	</g>
	<g>
		<g>
			<g>
				<polygon class="st38" points="666.04,385.13 666.52,398.29 700.9,400.97 700.9,388.74 				"/>
				<polygon class="st39" points="664.25,385.2 664.25,383.39 703.18,385.02 703.18,388.64 703.18,399.18 703.18,402.75 
					664.25,399.77 664.25,398.29 700.19,399.18 700.85,388.35 				"/>
				<polygon class="st40" points="703.18,385.02 749.93,385.02 749.93,399.18 703.18,402.75 				"/>
				<polygon class="st41" points="746.72,387.8 746.72,396.63 716.26,399.71 716.26,387.8 				"/>
				<g>
					<polygon class="st40" points="734.26,399.46 741.33,399.09 741.33,387.15 741.15,387.15 741.15,398.88 734.44,399.23 
						734.44,386.56 727.13,386.56 727.13,386.67 727.44,399.35 727.62,399.34 727.32,386.78 734.26,386.78 					"/>
				</g>
				<polygon class="st42" points="700.64,391.72 666.04,386.32 666.04,385.13 700.85,388.35 				"/>
				<path class="st41" d="M707.94,393.7c-0.09,2.44,1.33,4.49,3.16,4.59c1.83,0.1,3.38-1.79,3.47-4.23
					c0.09-2.44-1.33-4.49-3.16-4.59C709.59,389.37,708.03,391.27,707.94,393.7z M709.04,393.76c0.06-1.63,1.1-2.9,2.33-2.83
					c1.22,0.07,2.17,1.44,2.12,3.07c-0.06,1.63-1.1,2.89-2.33,2.83C709.93,396.77,708.98,395.39,709.04,393.76z"/>
				<path class="st38" d="M710.86,396.78c0.09,0.03,0.19,0.05,0.3,0.05c1.22,0.07,2.27-1.2,2.33-2.83c0.06-1.63-0.89-3-2.12-3.07
					c-0.1-0.01-0.2,0-0.3,0.02c1.09,0.24,1.88,1.52,1.83,3.02C712.84,395.47,711.96,396.66,710.86,396.78z"/>
				<path class="st43" d="M709.04,393.76c-0.05,1.5,0.73,2.77,1.82,3.02c1.1-0.12,1.98-1.31,2.03-2.81c0.05-1.5-0.74-2.78-1.83-3.02
					C709.97,391.08,709.09,392.27,709.04,393.76z"/>
			</g>
			<g>
				<polygon class="st41" points="751.91,374.29 751.43,383.09 711.21,384.88 711.21,372.65 				"/>
				<polygon class="st43" points="753.69,374.37 753.69,372.55 708.93,368.93 708.93,372.55 708.93,383.09 708.93,386.66 
					753.69,384.57 753.69,383.09 711.92,383.09 712.52,372.7 				"/>
				<polygon class="st7" points="708.93,368.93 662.18,368.93 662.18,383.09 708.93,386.66 				"/>
				<polygon class="st41" points="665.39,371.71 665.39,380.54 695.85,383.62 695.85,371.71 				"/>
				<g>
					<polygon class="st7" points="677.85,383.37 670.78,383 670.78,371.07 670.96,371.07 670.96,382.79 677.67,383.14 
						677.67,370.47 684.98,370.47 684.98,370.58 684.67,383.26 684.49,383.25 684.79,370.69 677.85,370.69 					"/>
				</g>
				<polygon class="st38" points="712.36,375.49 751.91,375.49 751.91,374.29 712.52,372.7 				"/>
				<path class="st41" d="M700.69,373.38c-1.83,0.1-3.24,2.15-3.16,4.59c0.09,2.44,1.64,4.33,3.47,4.23
					c1.83-0.1,3.25-2.15,3.16-4.59C704.08,375.18,702.52,373.28,700.69,373.38z M700.95,380.74c-1.22,0.07-2.27-1.2-2.33-2.83
					c-0.06-1.63,0.89-3,2.12-3.07c1.23-0.07,2.27,1.2,2.33,2.83C703.13,379.31,702.18,380.68,700.95,380.74z"/>
				<path class="st38" d="M701.25,380.69c-0.09,0.03-0.19,0.05-0.3,0.05c-1.22,0.07-2.27-1.2-2.33-2.83c-0.06-1.63,0.89-3,2.12-3.07
					c0.1-0.01,0.2,0,0.3,0.02c-1.09,0.24-1.88,1.52-1.83,3.02C699.27,379.38,700.15,380.57,701.25,380.69z"/>
				<path class="st43" d="M703.07,377.67c0.05,1.5-0.73,2.77-1.82,3.02c-1.1-0.12-1.98-1.31-2.03-2.81
					c-0.05-1.5,0.74-2.78,1.83-3.02C702.14,374.99,703.02,376.18,703.07,377.67z"/>
			</g>
		</g>
		<path class="st44" d="M666.21,389.75l0.04,1.2c0,0,15.24,1.12,15.02,1.07C681.06,391.97,666.21,389.75,666.21,389.75z"/>
		<polygon class="st44" points="666.37,394.13 688.63,395.38 666.42,395.38 		"/>
		<polygon class="st38" points="751.72,377.78 751.66,378.76 736.73,377.8 		"/>
	</g>
	<g>
		<g>
			<polygon class="st45" points="433.53,432.26 444.26,432.26 420.05,568.72 412.93,568.72 			"/>
			<polygon class="st45" points="447.96,411.47 447.86,412.08 436.57,412.08 436.66,411.47 			"/>
			<polygon class="st46" points="445.58,432.26 453.94,432.26 436.66,553.29 431.92,553.29 			"/>
			<polygon class="st46" points="456.88,411.47 456.79,412.08 447.91,412.08 447.96,411.47 			"/>
			<polygon class="st45" points="732.27,412.08 720.97,412.08 720.88,411.47 732.17,411.47 			"/>
			<polygon class="st45" points="755.86,568.72 748.74,568.72 724.58,432.26 735.31,432.26 			"/>
			<polygon class="st46" points="720.93,412.08 712.1,412.08 712,411.47 720.88,411.47 			"/>
			<polygon class="st46" points="736.87,553.29 732.13,553.29 714.95,432.26 723.2,432.26 			"/>
		</g>
		<rect x="396.34" y="400.22" class="st47" width="378.53" height="11.87"/>
		<polygon class="st48" points="447.86,412.08 444.26,432.26 433.53,432.26 436.57,412.08 		"/>
		<polygon class="st49" points="456.79,412.08 453.94,432.26 445.58,432.26 447.86,412.08 		"/>
		<polygon class="st49" points="723.2,432.26 714.95,432.26 712.1,412.08 720.97,412.08 		"/>
		<polygon class="st48" points="735.31,432.26 724.58,432.26 720.97,412.08 732.27,412.08 		"/>
	</g>
</g>
</svg>
